<svg width="65" height="56" viewBox="0 0 65 56" fill="none" xmlns="http://www.w3.org/2000/svg">
<g clip-path="url(#clip0)">
<path opacity="0.229" d="M3.80524 44.9928C-3.73997 35.9526 5.26677 24.6334 7.74099 15.7518C10.2152 6.87008 14.9153 0.0947816 24.1923 1.15776C33.4694 2.22074 33.0582 7.02982 36.6347 19.0935C40.2113 31.1573 51.9145 29.911 46.4337 44.9928C40.9528 60.0746 11.3505 54.0331 3.80524 44.9928Z" fill="#F9F09F"/>
<path d="M62.1579 14H31.8421C31.0883 14 30.3654 14.3014 29.8324 14.838C29.2994 15.3746 29 16.1024 29 16.8612V47.3806C29 48.1395 29.2994 48.8672 29.8324 49.4038C30.3654 49.9404 31.0883 50.2418 31.8421 50.2418H40.3874C41.4386 51.4242 42.7257 52.3701 44.1647 53.0177C45.6037 53.6653 47.1622 54 48.7384 54C50.3146 54 51.8732 53.6653 53.3122 53.0177C54.7511 52.3701 56.0383 51.4242 57.0895 50.2418H62.1579C62.9117 50.2418 63.6346 49.9404 64.1676 49.4038C64.7006 48.8672 65 48.1395 65 47.3806V16.8612C65 16.1024 64.7006 15.3746 64.1676 14.838C63.6346 14.3014 62.9117 14 62.1579 14V14ZM59.6 18.1011C59.6797 18.0041 59.7847 17.9314 59.9032 17.8912C60.1338 17.7958 60.3925 17.7958 60.6232 17.8912C60.7416 17.9314 60.8466 18.0041 60.9263 18.1011C61.0174 18.1861 61.0898 18.2895 61.1388 18.4045C61.1877 18.5195 61.2122 18.6436 61.2105 18.7687C61.2128 18.8937 61.1869 19.0176 61.1347 19.1311C61.0948 19.2503 61.0226 19.356 60.9263 19.4363C60.8466 19.5332 60.7416 19.6059 60.6232 19.6461C60.5097 19.6964 60.3871 19.7224 60.2632 19.7224C60.1392 19.7224 60.0166 19.6964 59.9032 19.6461C59.7847 19.6059 59.6797 19.5332 59.6 19.4363C59.5037 19.356 59.4315 19.2503 59.3916 19.1311C59.3394 19.0176 59.3135 18.8937 59.3158 18.7687C59.3142 18.6436 59.3386 18.5195 59.3876 18.4045C59.4365 18.2895 59.5089 18.1861 59.6 18.1011V18.1011ZM55.6021 18.4062C55.6421 18.287 55.7142 18.1813 55.8105 18.1011C55.8902 18.0041 55.9952 17.9314 56.1137 17.8912C56.2849 17.8156 56.4751 17.7952 56.6583 17.8328C56.8415 17.8703 57.0087 17.964 57.1368 18.1011C57.2331 18.1813 57.3053 18.287 57.3453 18.4062C57.3953 18.5204 57.4211 18.6439 57.4211 18.7687C57.4211 18.8935 57.3953 19.0169 57.3453 19.1311C57.3053 19.2503 57.2331 19.356 57.1368 19.4363C57.0523 19.528 56.9496 19.6009 56.8354 19.6501C56.7212 19.6994 56.598 19.724 56.4737 19.7224C56.3495 19.7247 56.2264 19.6986 56.1137 19.6461C55.9952 19.6059 55.8902 19.5332 55.8105 19.4363C55.7142 19.356 55.6421 19.2503 55.6021 19.1311C55.5521 19.0169 55.5263 18.8935 55.5263 18.7687C55.5263 18.6439 55.5521 18.5204 55.6021 18.4062V18.4062ZM51.8126 18.4062C51.8526 18.287 51.9248 18.1813 52.0211 18.1011C52.1008 18.0041 52.2058 17.9314 52.3242 17.8912C52.5549 17.7958 52.8136 17.7958 53.0442 17.8912C53.1627 17.9314 53.2676 18.0041 53.3474 18.1011C53.4437 18.1813 53.5158 18.287 53.5558 18.4062C53.608 18.5197 53.6339 18.6436 53.6316 18.7687C53.6332 18.8938 53.6088 19.0178 53.5598 19.1328C53.5109 19.2478 53.4385 19.3512 53.3474 19.4363C53.2676 19.5332 53.1627 19.6059 53.0442 19.6461C52.9308 19.6964 52.8082 19.7224 52.6842 19.7224C52.5602 19.7224 52.4376 19.6964 52.3242 19.6461C52.2058 19.6059 52.1008 19.5332 52.0211 19.4363C51.9299 19.3512 51.8576 19.2478 51.8086 19.1328C51.7597 19.0178 51.7352 18.8938 51.7368 18.7687C51.7345 18.6436 51.7604 18.5197 51.8126 18.4062V18.4062ZM48.7432 52.0921C46.2565 52.0896 43.8724 51.094 42.114 49.3238C40.3557 47.5536 39.3667 45.1535 39.3642 42.6501C39.3557 40.7858 39.9108 38.9629 40.9558 37.4237L48.0421 43.2987L48.1368 43.394C48.1539 43.394 48.1709 43.4093 48.188 43.4207C48.2051 43.4322 48.2411 43.4532 48.2695 43.4703C48.2984 43.4936 48.3302 43.5128 48.3642 43.5276C48.4002 43.539 48.4381 43.5447 48.4741 43.5524C48.5101 43.56 48.5347 43.5829 48.5688 43.5905L57.7413 45.2519C57.1884 47.2244 56.0097 48.9606 54.385 50.1956C52.7604 51.4306 50.779 52.0967 48.7432 52.0921V52.0921ZM63.1053 47.3806C63.1053 47.6336 63.0055 47.8762 62.8278 48.055C62.6501 48.2339 62.4092 48.3344 62.1579 48.3344H58.4669C59.0826 47.2692 59.5198 46.1092 59.7611 44.9009C59.7993 44.828 59.8279 44.7505 59.8463 44.6701C59.8758 44.4821 59.8466 44.2896 59.7629 44.1189L59.7478 44.0845C59.6831 43.9448 59.5847 43.8235 59.4617 43.7317C59.4408 43.7126 59.4333 43.6859 59.4105 43.6687C59.2998 43.622 59.1858 43.5838 59.0695 43.5543C59.06 43.5533 59.0505 43.5533 59.0411 43.5543L49.7474 41.87L50.2779 32.3174V32.2792C50.2774 32.1811 50.2581 32.0839 50.2211 31.9931C50.2211 31.974 50.2021 31.9359 50.2021 31.9168C50.1582 31.8363 50.1075 31.7597 50.0505 31.6879C49.9725 31.5829 49.8729 31.4961 49.7584 31.4335C49.6439 31.371 49.5173 31.3341 49.3874 31.3255C49.3299 31.3224 49.2723 31.3289 49.2168 31.3446C49.061 31.313 48.902 31.3001 48.7432 31.3064C47.0935 31.3059 45.4641 31.6714 43.9707 32.3769C42.4774 33.0824 41.1569 34.1107 40.1032 35.3884L40.0463 35.4456C40.0147 35.4791 39.989 35.5178 39.9705 35.5601C38.5378 37.3376 37.6776 39.5126 37.5046 41.795C37.3316 44.0774 37.8541 46.3586 39.0023 48.3344H31.8421C31.5908 48.3344 31.3499 48.2339 31.1722 48.055C30.9945 47.8762 30.8947 47.6336 30.8947 47.3806V23.5373H63.1053V47.3806ZM32.7895 26.3985C32.7895 26.1456 32.8893 25.903 33.067 25.7241C33.2446 25.5453 33.4856 25.4448 33.7368 25.4448H43.2105C43.4618 25.4448 43.7028 25.5453 43.8804 25.7241C44.0581 25.903 44.1579 26.1456 44.1579 26.3985C44.1579 26.6515 44.0581 26.8941 43.8804 27.0729C43.7028 27.2518 43.4618 27.3523 43.2105 27.3523H33.7368C33.4856 27.3523 33.2446 27.2518 33.067 27.0729C32.8893 26.8941 32.7895 26.6515 32.7895 26.3985ZM32.7895 30.2135C32.7895 29.9605 32.8893 29.7179 33.067 29.5391C33.2446 29.3602 33.4856 29.2597 33.7368 29.2597H39.4211C39.6723 29.2597 39.9133 29.3602 40.0909 29.5391C40.2686 29.7179 40.3684 29.9605 40.3684 30.2135C40.3684 30.4664 40.2686 30.709 40.0909 30.8878C39.9133 31.0667 39.6723 31.1672 39.4211 31.1672H33.7368C33.4856 31.1672 33.2446 31.0667 33.067 30.8878C32.8893 30.709 32.7895 30.4664 32.7895 30.2135ZM52.0589 41.0669L60.2253 42.5548C60.2807 42.5705 60.3383 42.5769 60.3958 42.5738C60.6142 42.5739 60.8259 42.498 60.9951 42.3589C61.1643 42.2199 61.2805 42.0263 61.3242 41.8108C61.4371 41.2588 61.488 40.6958 61.4758 40.1323C61.481 37.7516 60.5774 35.4599 58.9517 33.731C57.326 32.0021 55.1026 30.9682 52.7411 30.8429C52.6177 30.836 52.4943 30.8537 52.3778 30.8951C52.2614 30.9366 52.1542 31.0008 52.0626 31.0842C51.971 31.1676 51.8967 31.2684 51.844 31.3809C51.7913 31.4933 51.7614 31.6152 51.7558 31.7394L51.2821 40.0751C51.2626 40.3087 51.332 40.5411 51.4762 40.7252C51.6204 40.9094 51.8287 41.0315 52.0589 41.0669V41.0669ZM53.5937 32.8648C55.2785 33.1799 56.8002 34.0796 57.8942 35.4074C58.9881 36.7352 59.585 38.4072 59.5811 40.1323V40.4947L53.2147 39.3502L53.5937 32.8648Z" fill="#EDD70E"/>
</g>
<defs>
<clipPath id="clip0">
<rect width="64.898" height="55.651" fill="white"/>
</clipPath>
</defs>
</svg>
