<svg width="60" height="59" viewBox="0 0 60 59" fill="none" xmlns="http://www.w3.org/2000/svg">
<path opacity="0.12" d="M13.1029 11.3654C24.5379 0.530483 40.1826 7.01028 40.1399 13.2943C40.0973 19.5784 49.4282 22.4343 50.4687 30.1622C51.5093 37.8902 46.0832 50.0256 33.4963 48.8056C20.9093 47.5856 24.0666 52.4434 16.9438 51.5318C9.82104 50.6202 3.45904 45.7781 5.13867 41.0699C10.7 25.4793 1.66794 22.2003 13.1029 11.3654Z" fill="#EDD70E"/>
<path d="M27.7222 40.2222C26.6528 40.2222 25.7778 39.3472 25.7778 38.2778V28.5556C25.7778 27.4861 26.6528 26.6111 27.7222 26.6111C28.7917 26.6111 29.6667 27.4861 29.6667 28.5556V38.2778C29.6667 39.3472 28.7917 40.2222 27.7222 40.2222ZM35.5 40.2222C34.4306 40.2222 33.5556 39.3472 33.5556 38.2778V22.7222C33.5556 21.6528 34.4306 20.7778 35.5 20.7778C36.5694 20.7778 37.4444 21.6528 37.4444 22.7222V38.2778C37.4444 39.3472 36.5694 40.2222 35.5 40.2222ZM43.2778 40.2222C42.2083 40.2222 41.3333 39.3472 41.3333 38.2778V34.3889C41.3333 33.3194 42.2083 32.4444 43.2778 32.4444C44.3472 32.4444 45.2222 33.3194 45.2222 34.3889V38.2778C45.2222 39.3472 44.3472 40.2222 43.2778 40.2222ZM47.1667 44.1111H23.8333C22.7639 44.1111 21.8889 43.2361 21.8889 42.1667V18.8333C21.8889 17.7639 22.7639 16.8889 23.8333 16.8889H47.1667C48.2361 16.8889 49.1111 17.7639 49.1111 18.8333V42.1667C49.1111 43.2361 48.2361 44.1111 47.1667 44.1111ZM49.1111 13H21.8889C19.75 13 18 14.75 18 16.8889V44.1111C18 46.25 19.75 48 21.8889 48H49.1111C51.25 48 53 46.25 53 44.1111V16.8889C53 14.75 51.25 13 49.1111 13Z" fill="#EDD70E"/>
</svg>
