<svg width="60" height="59" viewBox="0 0 60 59" fill="none" xmlns="http://www.w3.org/2000/svg">
<path opacity="0.12" d="M13.1029 11.3654C24.5379 0.530483 40.1826 7.01028 40.1399 13.2943C40.0973 19.5784 49.4282 22.4343 50.4687 30.1622C51.5093 37.8902 46.0832 50.0256 33.4963 48.8056C20.9093 47.5856 24.0666 52.4434 16.9438 51.5318C9.82104 50.6202 3.45904 45.7781 5.13867 41.0699C10.7 25.4793 1.66794 22.2003 13.1029 11.3654Z" fill="#EDD70E"/>
<path fill-rule="evenodd" clip-rule="evenodd" d="M27 9V46H37.76C38.29 46.8 39.08 47.4 40 47.72V51H43V47.72C43.92 47.39 44.7 46.79 45.24 46H56V9H27ZM41.5 45C40.67 45 40 44.33 40 43.5C40 42.67 40.67 42 41.5 42C42.33 42 43 42.67 43 43.5C43 44.33 42.33 45 41.5 45ZM53 43H45.95C45.7 40.76 43.81 39 41.5 39C39.19 39 37.3 40.76 37.05 43H30V12H53V43ZM51 17H32V20H51V17ZM32 21H51V24H32V21ZM40 25H32V28H40V25ZM32 29H40V32H32V29ZM40 33H32V36H40V33ZM45 25.24H48V26.24H51V29.24H48H45.5C45.22 29.24 45 29.46 45 29.74C45 30.02 45.22 30.24 45.5 30.24H47.5C49.43 30.24 51 31.81 51 33.74C51 35.5 49.69 36.94 48 37.19V38.24H45V37.24H42V34.24H45H47.5C47.78 34.24 48 34.02 48 33.74C48 33.46 47.78 33.24 47.5 33.24H45.5C43.57 33.24 42 31.67 42 29.74C42 27.98 43.31 26.54 45 26.29V25.24Z" fill="#EDD70E"/>
</svg>
