<svg width="60" height="59" viewBox="0 0 60 59" fill="none" xmlns="http://www.w3.org/2000/svg">
<path opacity="0.12" d="M13.9779 11.3654C25.4129 0.530483 41.0576 7.01028 41.0149 13.2943C40.9723 19.5784 50.3032 22.4343 51.3437 30.1622C52.3843 37.8902 46.9582 50.0256 34.3713 48.8056C21.7843 47.5856 24.9416 52.4434 17.8188 51.5318C10.696 50.6202 4.33404 45.7781 6.01367 41.0699C11.575 25.4793 2.54294 22.2003 13.9779 11.3654Z" fill="#EDD70E"/>
<path d="M40.75 31.2727C40.4039 31.2727 40.0655 31.3767 39.7778 31.5715C39.49 31.7663 39.2657 32.0431 39.1332 32.3671C39.0008 32.691 38.9661 33.0474 39.0336 33.3913C39.1011 33.7352 39.2678 34.051 39.5126 34.299C39.7573 34.5469 40.0691 34.7157 40.4086 34.7841C40.7481 34.8525 41.0999 34.8174 41.4197 34.6832C41.7395 34.5491 42.0128 34.3219 42.2051 34.0303C42.3974 33.7388 42.5 33.3961 42.5 33.0455C42.5 32.5753 42.3156 32.1244 41.9874 31.7919C41.6592 31.4595 41.2141 31.2727 40.75 31.2727ZM33.75 31.2727C33.4039 31.2727 33.0655 31.3767 32.7778 31.5715C32.49 31.7663 32.2657 32.0431 32.1332 32.3671C32.0008 32.691 31.9661 33.0474 32.0336 33.3913C32.1011 33.7352 32.2678 34.051 32.5126 34.299C32.7573 34.5469 33.0691 34.7157 33.4086 34.7841C33.7481 34.8525 34.0999 34.8174 34.4197 34.6832C34.7395 34.5491 35.0128 34.3219 35.2051 34.0303C35.3974 33.7388 35.5 33.3961 35.5 33.0455C35.5 32.5753 35.3156 32.1244 34.9874 31.7919C34.6592 31.4595 34.2141 31.2727 33.75 31.2727ZM60 15.3182C60 13.9077 59.4469 12.555 58.4623 11.5577C57.4777 10.5603 56.1424 10 54.75 10H30.25C28.8576 10 27.5223 10.5603 26.5377 11.5577C25.5531 12.555 25 13.9077 25 15.3182V22.4091C25.0077 23.721 25.4939 24.9837 26.365 25.9545C25.4939 26.9254 25.0077 28.1881 25 29.5V36.5909C25 38.0014 25.5531 39.3541 26.5377 40.3514C27.5223 41.3488 28.8576 41.9091 30.25 41.9091H40.75V45.4545H26.75C26.2859 45.4545 25.8408 45.6413 25.5126 45.9738C25.1844 46.3062 25 46.7571 25 47.2273C25 47.6974 25.1844 48.1483 25.5126 48.4808C25.8408 48.8132 26.2859 49 26.75 49H58.25C58.7141 49 59.1592 48.8132 59.4874 48.4808C59.8156 48.1483 60 47.6974 60 47.2273C60 46.7571 59.8156 46.3062 59.4874 45.9738C59.1592 45.6413 58.7141 45.4545 58.25 45.4545H44.25V41.9091H54.75C56.1424 41.9091 57.4777 41.3488 58.4623 40.3514C59.4469 39.3541 60 38.0014 60 36.5909V29.5C59.9923 28.1881 59.5061 26.9254 58.635 25.9545C59.5061 24.9837 59.9923 23.721 60 22.4091V15.3182ZM56.5 36.5909C56.5 37.0611 56.3156 37.512 55.9874 37.8444C55.6592 38.1769 55.2141 38.3636 54.75 38.3636H30.25C29.7859 38.3636 29.3408 38.1769 29.0126 37.8444C28.6844 37.512 28.5 37.0611 28.5 36.5909V29.5C28.5 29.0298 28.6844 28.5789 29.0126 28.2465C29.3408 27.914 29.7859 27.7273 30.25 27.7273H54.75C55.2141 27.7273 55.6592 27.914 55.9874 28.2465C56.3156 28.5789 56.5 29.0298 56.5 29.5V36.5909ZM56.5 22.4091C56.5 22.8792 56.3156 23.3301 55.9874 23.6626C55.6592 23.995 55.2141 24.1818 54.75 24.1818H30.25C29.7859 24.1818 29.3408 23.995 29.0126 23.6626C28.6844 23.3301 28.5 22.8792 28.5 22.4091V15.3182C28.5 14.848 28.6844 14.3971 29.0126 14.0647C29.3408 13.7322 29.7859 13.5455 30.25 13.5455H54.75C55.2141 13.5455 55.6592 13.7322 55.9874 14.0647C56.3156 14.3971 56.5 14.848 56.5 15.3182V22.4091ZM40.75 17.0909C40.4039 17.0909 40.0655 17.1949 39.7778 17.3897C39.49 17.5845 39.2657 17.8613 39.1332 18.1852C39.0008 18.5092 38.9661 18.8656 39.0336 19.2095C39.1011 19.5534 39.2678 19.8692 39.5126 20.1171C39.7573 20.3651 40.0691 20.5339 40.4086 20.6023C40.7481 20.6707 41.0999 20.6356 41.4197 20.5014C41.7395 20.3672 42.0128 20.14 42.2051 19.8485C42.3974 19.557 42.5 19.2142 42.5 18.8636C42.5 18.3935 42.3156 17.9426 41.9874 17.6101C41.6592 17.2777 41.2141 17.0909 40.75 17.0909ZM33.75 17.0909C33.4039 17.0909 33.0655 17.1949 32.7778 17.3897C32.49 17.5845 32.2657 17.8613 32.1332 18.1852C32.0008 18.5092 31.9661 18.8656 32.0336 19.2095C32.1011 19.5534 32.2678 19.8692 32.5126 20.1171C32.7573 20.3651 33.0691 20.5339 33.4086 20.6023C33.7481 20.6707 34.0999 20.6356 34.4197 20.5014C34.7395 20.3672 35.0128 20.14 35.2051 19.8485C35.3974 19.557 35.5 19.2142 35.5 18.8636C35.5 18.3935 35.3156 17.9426 34.9874 17.6101C34.6592 17.2777 34.2141 17.0909 33.75 17.0909Z" fill="#EDD70E"/>
</svg>
