<svg xmlns="http://www.w3.org/2000/svg" xmlns:xlink="http://www.w3.org/1999/xlink" width="53.491" height="59.789" viewBox="0 0 53.491 59.789"><defs><linearGradient id="a" x1="0.895" x2="0.088" y2="1.084" gradientUnits="objectBoundingBox"><stop offset="0" stop-color="#bcffee"/><stop offset="1" stop-color="#46d191"/></linearGradient><filter id="b" x="0" y="0" width="53.491" height="59.789" filterUnits="userSpaceOnUse"><feOffset dx="2" dy="5" input="SourceAlpha"/><feGaussianBlur stdDeviation="5" result="c"/><feFlood flood-color="#72e2b3" flood-opacity="0.4"/><feComposite operator="in" in2="c"/><feComposite in="SourceGraphic"/></filter><linearGradient id="d" x1="1.698" y1="0.102" x2="-0.437" y2="1.13" gradientUnits="objectBoundingBox"><stop offset="0" stop-color="#81e8bf"/><stop offset="1" stop-color="#3eaa7d"/></linearGradient></defs><g transform="translate(13 10)"><g transform="matrix(1, 0, 0, 1, -13, -10)" filter="url(#b)"><path d="M464.764,268.618v-20.5a4.645,4.645,0,0,1,4.645-4.645h14.2a4.645,4.645,0,0,1,4.645,4.645v25.144H469.409A4.645,4.645,0,0,1,464.764,268.618Z" transform="translate(-451.76 -233.47)" fill="url(#a)"/></g><path d="M540.617,297.322V281.476a3.149,3.149,0,0,1,3.149-3.149h0a3.149,3.149,0,0,1,3.149,3.149v11.378a4.468,4.468,0,0,1-4.468,4.469Z" transform="translate(-517.126 -267.533)" fill="url(#d)"/><path d="M225.916,418.754h-4.493a.8.8,0,0,1-.7-.414l-1.111-2.014a.8.8,0,0,1,1.4-.772l.883,1.6h3.564l.515-.874-6.035-3.444a.8.8,0,0,1-.28-1.121l1.233-1.954a.8.8,0,0,1,.677-.373h4.359a.8.8,0,0,1,.691.4l1.16,1.99a.8.8,0,1,1-1.382.806l-.929-1.593h-3.459l-.551.874,6.014,3.432a.8.8,0,0,1,.293,1.1l-1.16,1.966A.8.8,0,0,1,225.916,418.754Z" transform="translate(-212.257 -397.958)" fill="#fff"/></g></svg>