<svg xmlns="http://www.w3.org/2000/svg" width="18" height="18" viewBox="0 0 18 18"><g><g><g><path fill="#fff" d="M9.29 6.014l.082-.006a.606.606 0 0 0 .516-.605.605.605 0 0 0-.597-.61h-4.3l-.081.005a.606.606 0 0 0-.516.605c0 .338.267.611.597.611zm4.472 3.344l.081-.006a.607.607 0 0 0 .517-.605.605.605 0 0 0-.598-.611h-.248l-.081.005a.608.608 0 0 0-.516.606c0 .337.267.61.597.61zm-1.911-.562c0-.872.692-1.58 1.546-1.58h2.627v3.162h-2.627l-.12-.005c-.798-.063-1.426-.744-1.426-1.577zM1.976 5.981c0-2.02 1.607-3.663 3.582-3.663h6.884c1.975 0 3.582 1.643 3.582 3.663v.013h-2.627l-.15.004c-1.444.08-2.59 1.303-2.59 2.8 0 1.547 1.226 2.801 2.74 2.802h2.627v.227c0 2.02-1.607 3.663-3.582 3.663H5.558c-1.975 0-3.582-1.643-3.582-3.663zm10.466 10.731c2.634 0 4.777-2.192 4.777-4.885V5.981c0-2.693-2.143-4.885-4.777-4.885H5.558C2.924 1.096.781 3.288.781 5.981v5.846c0 2.693 2.143 4.885 4.777 4.885z"/><path fill="none" stroke="#fff" stroke-miterlimit="20" stroke-width=".3" d="M9.29 6.014l.082-.006a.606.606 0 0 0 .516-.605.605.605 0 0 0-.597-.61h-4.3l-.081.005a.606.606 0 0 0-.516.605c0 .338.267.611.597.611zm4.472 3.344l.081-.006a.607.607 0 0 0 .517-.605.605.605 0 0 0-.598-.611h-.248l-.081.005a.608.608 0 0 0-.516.606c0 .337.267.61.597.61zm-1.911-.562c0-.872.692-1.58 1.546-1.58h2.627v3.162h-2.627l-.12-.005c-.798-.063-1.426-.744-1.426-1.577zM1.976 5.981c0-2.02 1.607-3.663 3.582-3.663h6.884c1.975 0 3.582 1.643 3.582 3.663v.013h-2.627l-.15.004c-1.444.08-2.59 1.303-2.59 2.8 0 1.547 1.226 2.801 2.74 2.802h2.627v.227c0 2.02-1.607 3.663-3.582 3.663H5.558c-1.975 0-3.582-1.643-3.582-3.663zm10.466 10.731c2.634 0 4.777-2.192 4.777-4.885V5.981c0-2.693-2.143-4.885-4.777-4.885H5.558C2.924 1.096.781 3.288.781 5.981v5.846c0 2.693 2.143 4.885 4.777 4.885z"/></g></g></g></svg>