<svg xmlns="http://www.w3.org/2000/svg" width="33" height="36" viewBox="0 0 33 36"><defs><mask id="2k67b" width="2" height="2" x="-1" y="-1"><path fill="#fff" d="M12.81 10.87h5.76v16.45h-5.76z"/><path d="M16.72 27.317h-2.057c-1.02 0-1.85-.83-1.85-1.85V12.719c0-1.02.83-1.85 1.85-1.85h2.056c1.02 0 1.85.83 1.85 1.85v12.748c0 1.02-.83 1.85-1.85 1.85z"/></mask><filter id="2k67a" width="37.76" height="51.45" x="-3.19" y="-5.13" filterUnits="userSpaceOnUse"><feOffset dy="3" in="SourceGraphic" result="FeOffset2041Out"/><feGaussianBlur in="FeOffset2041Out" result="FeGaussianBlur2042Out" stdDeviation="2.4 2.4"/></filter><linearGradient id="2k67c" x1="27.07" x2="15.69" y1="2.02" y2="21.8" gradientUnits="userSpaceOnUse"><stop offset="0" stop-color="#314baf"/><stop offset="1" stop-color="#86a0ff"/></linearGradient><mask id="2k67e" width="2" height="2" x="-1" y="-1"><path fill="#fff" d="M5 14.98h5.76v12.34H5z"/><path d="M8.906 27.317H6.85c-1.02 0-1.85-.83-1.85-1.85V16.83c0-1.02.83-1.85 1.85-1.85h2.056c1.02 0 1.85.83 1.85 1.85v8.636c0 1.02-.83 1.85-1.85 1.85z"/></mask><filter id="2k67d" width="37.76" height="47.34" x="-11" y="-1.02" filterUnits="userSpaceOnUse"><feOffset dy="3" in="SourceGraphic" result="FeOffset2060Out"/><feGaussianBlur in="FeOffset2060Out" result="FeGaussianBlur2061Out" stdDeviation="2.4 2.4"/></filter><linearGradient id="2k67f" x1="19.26" x2="7.88" y1="8.34" y2="23.18" gradientUnits="userSpaceOnUse"><stop offset="0" stop-color="#314baf"/><stop offset="1" stop-color="#86a0ff"/></linearGradient><mask id="2k67h" width="2" height="2" x="-1" y="-1"><path fill="#fff" d="M18.16 1h10.69v26.32H18.16z"/><path d="M24.532 27.317h-2.056c-1.02 0-1.85-.83-1.85-1.85V8.402h-1.13c-.528 0-.993-.298-1.214-.778a1.323 1.323 0 0 1 .211-1.442l4.399-4.908a.822.822 0 0 1 1.225 0l4.398 4.908.012.014c.344.4.42.948.2 1.428-.221.48-.686.778-1.215.778h-1.13v17.065c0 1.02-.83 1.85-1.85 1.85z"/></mask><filter id="2k67g" width="42.69" height="61.32" x="2.16" y="-15" filterUnits="userSpaceOnUse"><feOffset dy="3" in="SourceGraphic" result="FeOffset2079Out"/><feGaussianBlur in="FeOffset2079Out" result="FeGaussianBlur2080Out" stdDeviation="2.4 2.4"/></filter><linearGradient id="2k67i" x1="23.51" x2="20.49" y1=".25" y2="28.27" gradientUnits="userSpaceOnUse"><stop offset="0" stop-color="#ff5d0e"/><stop offset="1" stop-color="#ffad84"/></linearGradient></defs><g><g><g><g filter="url(#2k67a)"><path fill="none" d="M16.72 27.317h-2.057c-1.02 0-1.85-.83-1.85-1.85V12.719c0-1.02.83-1.85 1.85-1.85h2.056c1.02 0 1.85.83 1.85 1.85v12.748c0 1.02-.83 1.85-1.85 1.85z" mask="url(&quot;#2k67b&quot;)"/><path fill="#6882e3" fill-opacity=".25" d="M16.72 27.317h-2.057c-1.02 0-1.85-.83-1.85-1.85V12.719c0-1.02.83-1.85 1.85-1.85h2.056c1.02 0 1.85.83 1.85 1.85v12.748c0 1.02-.83 1.85-1.85 1.85z"/></g><path fill="url(#2k67c)" d="M16.72 27.317h-2.057c-1.02 0-1.85-.83-1.85-1.85V12.719c0-1.02.83-1.85 1.85-1.85h2.056c1.02 0 1.85.83 1.85 1.85v12.748c0 1.02-.83 1.85-1.85 1.85z"/></g><g><g filter="url(#2k67d)"><path fill="none" d="M8.906 27.317H6.85c-1.02 0-1.85-.83-1.85-1.85V16.83c0-1.02.83-1.85 1.85-1.85h2.056c1.02 0 1.85.83 1.85 1.85v8.636c0 1.02-.83 1.85-1.85 1.85z" mask="url(&quot;#2k67e&quot;)"/><path fill="#86a0ff" fill-opacity=".48" d="M8.906 27.317H6.85c-1.02 0-1.85-.83-1.85-1.85V16.83c0-1.02.83-1.85 1.85-1.85h2.056c1.02 0 1.85.83 1.85 1.85v8.636c0 1.02-.83 1.85-1.85 1.85z"/></g><path fill="url(#2k67f)" d="M8.906 27.317H6.85c-1.02 0-1.85-.83-1.85-1.85V16.83c0-1.02.83-1.85 1.85-1.85h2.056c1.02 0 1.85.83 1.85 1.85v8.636c0 1.02-.83 1.85-1.85 1.85z"/></g><g><g filter="url(#2k67g)"><path fill="none" d="M24.532 27.317h-2.056c-1.02 0-1.85-.83-1.85-1.85V8.402h-1.13c-.528 0-.993-.298-1.214-.778a1.323 1.323 0 0 1 .211-1.442l4.399-4.908a.822.822 0 0 1 1.225 0l4.398 4.908.012.014c.344.4.42.948.2 1.428-.221.48-.686.778-1.215.778h-1.13v17.065c0 1.02-.83 1.85-1.85 1.85z" mask="url(&quot;#2k67h&quot;)"/><path fill="#ff6f29" fill-opacity=".14" d="M24.532 27.317h-2.056c-1.02 0-1.85-.83-1.85-1.85V8.402h-1.13c-.528 0-.993-.298-1.214-.778a1.323 1.323 0 0 1 .211-1.442l4.399-4.908a.822.822 0 0 1 1.225 0l4.398 4.908.012.014c.344.4.42.948.2 1.428-.221.48-.686.778-1.215.778h-1.13v17.065c0 1.02-.83 1.85-1.85 1.85z"/></g><path fill="url(#2k67i)" d="M24.532 27.317h-2.056c-1.02 0-1.85-.83-1.85-1.85V8.402h-1.13c-.528 0-.993-.298-1.214-.778a1.323 1.323 0 0 1 .211-1.442l4.399-4.908a.822.822 0 0 1 1.225 0l4.398 4.908.012.014c.344.4.42.948.2 1.428-.221.48-.686.778-1.215.778h-1.13v17.065c0 1.02-.83 1.85-1.85 1.85z"/></g></g></g></svg>