<svg width="25" height="32" viewBox="0 0 25 32" fill="none" xmlns="http://www.w3.org/2000/svg">
<path fill-rule="evenodd" clip-rule="evenodd" d="M24.3473 4.17755H22.846C22.389 8.02872 17.8198 12.5979 14.8172 15.1436V16.7755C17.8198 19.3211 22.389 23.8903 22.846 27.7415H24.3473C24.6736 27.7415 25 28.0679 25 28.3943V31.2663C25 31.5927 24.6736 31.9191 24.3473 31.9191H0.652741C0.32637 31.9191 0 31.5927 0 31.2663V28.3943C0 28.0679 0.32637 27.7415 0.652741 27.7415H2.15405C2.67624 23.8903 7.24543 19.3211 10.1828 16.7755V15.1436C7.24543 12.5979 2.61097 8.02872 2.15405 4.17755H0.652741C0.32637 4.17755 0 3.85117 0 3.5248V0.652741C0 0.326371 0.32637 0 0.652741 0H24.3473C24.6736 0 25 0.326371 25 0.652741V3.5248C25 3.85117 24.6736 4.17755 24.3473 4.17755ZM16.1227 27.8068H17.8198L13.0548 21.4752C12.7937 21.1488 12.2715 21.1488 12.0104 21.4752L7.24543 27.8068H8.94256L12.5326 23.0418L16.1227 27.8068ZM7.24543 6.13577C7.24543 9.07311 9.5953 11.423 12.5326 11.423C15.47 11.423 17.8198 9.07311 17.8851 6.13577C17.8851 5.74412 17.624 5.48303 17.2324 5.48303H7.89817C7.50653 5.48303 7.24543 5.74412 7.24543 6.13577ZM12.5327 10.1175C10.5744 10.1175 8.94259 8.68147 8.61622 6.78852H16.4491C16.188 8.68147 14.4909 10.1175 12.5327 10.1175Z" fill="#EDD70E"/>
</svg>
