<svg width="33" height="33" viewBox="0 0 33 33" fill="none" xmlns="http://www.w3.org/2000/svg">
<path d="M12.7555 6.93876C12.2608 6.44402 11.6484 6.08325 10.9758 5.8904C10.3033 5.69755 9.59273 5.67895 8.91102 5.83636L6.39889 6.41592L5.81933 8.92805C5.66207 9.60976 5.68074 10.3203 5.87358 10.9928C6.06643 11.6653 6.42711 12.2778 6.92174 12.7725L9.68033 15.5311L11.1385 14.073L13.9337 11.2777L15.5136 9.69787L12.7555 6.93876V6.93876Z" fill="#D5E5F1"/>
<path d="M14.4829 8.66611L13.1866 10.0299C13.1283 10.0913 13.0513 10.1315 12.9677 10.1443C12.884 10.1571 12.7985 10.1417 12.7246 10.1006L12.7236 10.1001C12.6256 10.0456 12.5126 10.0246 12.4016 10.0401C12.2906 10.0556 12.1877 10.1069 12.1084 10.1862L10.9251 11.3695L11.2303 11.9187L11.0318 12.1172C10.8881 12.2609 10.7176 12.3748 10.5299 12.4526C10.3422 12.5303 10.141 12.5703 9.93789 12.5703C9.73473 12.5703 9.53356 12.5303 9.34586 12.4526C9.15817 12.3748 8.98763 12.2609 8.84399 12.1172L8.4681 11.7413C7.97335 11.2466 7.61258 10.6342 7.41973 9.96161C7.22688 9.28906 7.20828 8.57851 7.36569 7.8968L7.78129 6.09675L6.39889 6.41592L5.81933 8.92805C5.66207 9.60976 5.68074 10.3203 5.87358 10.9928C6.06643 11.6653 6.42711 12.2778 6.92174 12.7725L8.64908 14.4999L9.68033 15.5311L10.9694 14.2421L11.1385 14.073L11.9666 13.2449L13.9337 11.2777L14.2586 10.9529L15.5141 9.69736L14.4829 8.66611V8.66611Z" fill="#B0C4DA"/>
<path d="M27.4632 17.1229C27.2897 14.6242 26.3718 12.2347 24.8278 10.2625L25.2311 9.85927L23.0433 7.67147L22.6401 8.07469C20.6677 6.53092 18.2783 5.61306 15.7797 5.43933C17.7388 6.58626 19.5724 7.93528 21.2504 9.4643L20.8555 9.85927L23.0433 12.0471L23.4382 11.6521C24.9674 13.33 26.3164 15.1636 27.4632 17.1229V17.1229Z" fill="#D5E5F1"/>
<path d="M22.6405 8.07469C20.6682 6.53092 18.2788 5.61306 15.7802 5.43933C17.7393 6.58626 19.5729 7.93528 21.2509 9.4643L22.6405 8.07469Z" fill="#D5E5F1"/>
<path d="M22.6405 8.07469C20.6682 6.53092 18.2788 5.61306 15.7802 5.43933C17.7393 6.58626 19.5729 7.93528 21.2509 9.4643L22.6405 8.07469Z" fill="#D5E5F1"/>
<path d="M24.8124 11.5387L25.3569 10.9942C25.1896 10.7438 25.0133 10.4996 24.8284 10.262L23.4388 11.6516C24.968 13.3295 26.317 15.1631 27.4638 17.1224C27.4225 16.5278 27.3375 15.9364 27.2117 15.3522C26.4683 14.2685 25.6609 13.23 24.7939 12.2425C24.7066 12.1449 24.6599 12.0177 24.6634 11.8869C24.6668 11.756 24.7202 11.6315 24.8124 11.5387V11.5387ZM21.3645 8.09067L21.909 7.54617C22.1575 7.71323 22.4024 7.88803 22.6412 8.07469L21.2515 9.4643C19.5736 7.93516 17.74 6.58613 15.7808 5.43933C16.3753 5.48058 16.9667 5.56566 17.5509 5.69147C18.6347 6.43482 19.6731 7.24217 20.6606 8.10923C20.7582 8.1965 20.8854 8.24319 21.0162 8.23974C21.1471 8.23629 21.2717 8.18296 21.3645 8.09067V8.09067Z" fill="#B0C4DA"/>
<path d="M23.4078 8.03617L24.3193 7.12465L25.7778 8.58303L24.8663 9.49455L23.4078 8.03617Z" fill="#C96F29"/>
<path d="M23.0435 7.6715L25.231 9.85915L23.0434 12.0467L20.8558 9.85908L23.0435 7.6715Z" fill="#D5E5F1"/>
<path d="M22.3451 10.0949L21.4824 9.23227L20.856 9.85875L23.0438 12.0465L25.2315 9.85875L24.6355 9.26269L23.8038 10.0944C23.7081 10.1902 23.5944 10.2663 23.4693 10.3182C23.3441 10.3701 23.21 10.3968 23.0745 10.3968C22.9391 10.3969 22.8049 10.3703 22.6798 10.3184C22.5546 10.2666 22.4409 10.1907 22.3451 10.0949Z" fill="#B0C4DA"/>
<path d="M14.996 16.4484L6.45411 24.9903C6.35562 25.0854 6.27705 25.1992 6.22301 25.325C6.16896 25.4508 6.14051 25.5862 6.13932 25.7231C6.13813 25.86 6.16422 25.9958 6.21608 26.1225C6.26793 26.2493 6.3445 26.3644 6.44133 26.4612C6.53816 26.5581 6.6533 26.6346 6.78003 26.6865C6.90677 26.7384 7.04256 26.7644 7.17949 26.7633C7.31642 26.7621 7.45174 26.7336 7.57756 26.6796C7.70338 26.6255 7.81717 26.547 7.9123 26.4485L16.4541 17.9066L14.996 16.4484V16.4484Z" fill="#CA7829"/>
<path d="M7.51567 26.6918L7.53887 26.6851C7.59543 26.664 7.64996 26.6377 7.70181 26.6068C7.71367 26.6001 7.72656 26.5949 7.73842 26.5877C7.79978 26.5485 7.85856 26.5031 7.9127 26.449L16.4545 17.9071L14.9958 16.4484L14.7298 16.7145L14.2224 17.2219L14.5911 17.5905C14.639 17.6384 14.677 17.6952 14.703 17.7578C14.7289 17.8203 14.7423 17.8874 14.7423 17.9551C14.7423 18.0228 14.7289 18.0899 14.703 18.1524C14.677 18.215 14.639 18.2718 14.5911 18.3196L6.92167 25.9896C6.75871 26.1513 6.546 26.2534 6.31787 26.2793C6.42384 26.4426 6.57405 26.5724 6.75098 26.6536C6.92791 26.7347 7.12427 26.7639 7.31715 26.7377L7.32231 26.7372C7.38779 26.7285 7.45225 26.7135 7.51567 26.6918V26.6918Z" fill="#C96F29"/>
<path d="M16.4539 14.9901L21.2002 10.2436L22.6586 11.702L17.9123 16.4485L16.4539 14.9901Z" fill="#CA7829"/>
<path d="M21.9342 10.9771L21.2005 10.2434L20.6848 10.759L21.0535 11.1277C21.1014 11.1755 21.1394 11.2324 21.1654 11.2949C21.1913 11.3575 21.2047 11.4245 21.2047 11.4923C21.2047 11.56 21.1913 11.627 21.1654 11.6896C21.1394 11.7521 21.1014 11.809 21.0535 11.8568L18.3248 14.5855C18.2282 14.6821 18.0972 14.7364 17.9606 14.7365C17.824 14.7366 17.693 14.6824 17.5962 14.586L17.226 14.2173L16.4536 14.9897L17.9128 16.4484L18.6863 15.675L22.1435 12.2177L22.6592 11.7021L21.9342 10.9771Z" fill="#C96F29"/>
<path d="M14.341 12.9391L12.8823 14.3973L23.8064 25.2811L25.2645 23.8229L14.341 12.9391Z" fill="#CA7829"/>
<path d="M24.7479 23.3083L24.4287 23.6275C24.3321 23.7241 24.2011 23.7784 24.0645 23.7785C23.9279 23.7786 23.7969 23.7244 23.7001 23.628L14.5401 14.5014C14.492 14.4536 14.4539 14.3967 14.4278 14.3341C14.4018 14.2715 14.3884 14.2043 14.3883 14.1365C14.3883 14.0687 14.4016 14.0015 14.4276 13.9388C14.4535 13.8762 14.4916 13.8192 14.5395 13.7713L14.8567 13.4542L14.341 12.9386L13.6429 13.6367L12.8823 14.3973L13.399 14.9119L23.8064 25.2811L24.5813 24.5061L25.2645 23.8229L24.7479 23.3083Z" fill="#C96F29"/>
<path d="M10.4099 11.8846L11.8681 10.4265L15.1495 12.2492L12.2326 15.1661L10.4099 11.8846Z" fill="#617E95"/>
<path d="M10.4099 11.8846L11.8681 10.4265L15.1495 12.2492L12.2326 15.1661L10.4099 11.8846Z" fill="#617E95"/>
<path d="M14.2158 11.7305L13.4495 12.4967C13.3367 12.6096 13.1991 12.6948 13.0478 12.7455C12.8964 12.7962 12.7353 12.8111 12.5772 12.7889C12.4191 12.7668 12.2682 12.7082 12.1366 12.6179C12.005 12.5275 11.8961 12.4078 11.8186 12.2683L11.1782 11.1158L10.4125 11.8815L10.4094 11.8846L12.2327 15.1661L15.1496 12.2492L14.2158 11.7305Z" fill="#4C6D86"/>
<path d="M23.2589 25.8279L25.8111 23.2756L26.5403 24.0048L23.9881 26.5571L23.2589 25.8279Z" fill="#617E95"/>
<path d="M24.1405 25.146L24.0348 25.0527L23.2593 25.8282L23.9884 26.5573L24.7701 25.7756L24.1405 25.146Z" fill="#4C6D86"/>
<path d="M7.15937 27.257C6.95619 27.2574 6.75493 27.2177 6.56715 27.1401C6.37938 27.0625 6.2088 26.9485 6.06521 26.8048C5.77572 26.5144 5.61316 26.1211 5.61316 25.7111C5.61316 25.3011 5.77572 24.9078 6.06521 24.6175L14.6071 16.0756C14.6549 16.0278 14.7118 15.9898 14.7743 15.9639C14.8369 15.938 14.9039 15.9246 14.9716 15.9246C15.0393 15.9246 15.1063 15.938 15.1689 15.9639C15.2314 15.9898 15.2883 16.0278 15.3361 16.0756C15.384 16.1235 15.422 16.1803 15.4479 16.2429C15.4738 16.3054 15.4871 16.3725 15.4871 16.4402C15.4871 16.5079 15.4738 16.5749 15.4479 16.6375C15.422 16.7 15.384 16.7569 15.3361 16.8047L6.79482 25.3466C6.74695 25.3945 6.70897 25.4513 6.68306 25.5138C6.65716 25.5764 6.64382 25.6434 6.64382 25.7111C6.64382 25.7788 6.65716 25.8459 6.68306 25.9084C6.70897 25.971 6.74695 26.0278 6.79482 26.0757C6.84269 26.1235 6.89953 26.1615 6.96208 26.1874C7.02463 26.2133 7.09167 26.2267 7.15937 26.2267C7.22707 26.2267 7.29411 26.2133 7.35666 26.1874C7.41921 26.1615 7.47604 26.1235 7.52391 26.0757L16.0658 17.5343C16.1624 17.4377 16.2936 17.3833 16.4303 17.3833C16.567 17.3833 16.6982 17.4377 16.7949 17.5343C16.8915 17.631 16.9459 17.7622 16.9459 17.8989C16.9459 18.0356 16.8915 18.1668 16.7949 18.2634L8.25301 26.8048C8.10949 26.9485 7.93899 27.0624 7.75131 27.14C7.56362 27.2176 7.36246 27.2573 7.15937 27.257V27.257ZM17.889 16.9558C17.7869 16.956 17.6871 16.9259 17.6022 16.8693C17.5172 16.8127 17.451 16.7321 17.412 16.6378C17.3729 16.5435 17.3627 16.4397 17.3828 16.3396C17.4028 16.2395 17.4521 16.1477 17.5245 16.0756L22.1084 11.4917C22.1562 11.4439 22.2131 11.4059 22.2756 11.38C22.3382 11.3541 22.4052 11.3407 22.4729 11.3407C22.5406 11.3407 22.6077 11.3541 22.6702 11.38C22.7328 11.4059 22.7896 11.4439 22.8375 11.4917C22.8853 11.5396 22.9233 11.5964 22.9492 11.659C22.9751 11.7215 22.9885 11.7886 22.9885 11.8563C22.9885 11.924 22.9751 11.991 22.9492 12.0536C22.9233 12.1161 22.8853 12.173 22.8375 12.2208L18.2536 16.8047C18.1569 16.9014 18.0257 16.9558 17.889 16.9558V16.9558Z" fill="#024665"/>
<path d="M25.1465 10.2764L25.3894 10.033C25.4134 10.0091 25.4324 9.98063 25.4454 9.94931C25.4584 9.91799 25.4651 9.88441 25.4651 9.8505C25.4651 9.81659 25.4584 9.78301 25.4454 9.75169C25.4324 9.72037 25.4134 9.69192 25.3894 9.66797L25.3889 9.66745H25.3894L26.119 8.93836C26.167 8.89058 26.2052 8.83378 26.2312 8.77122C26.2572 8.70866 26.2706 8.64157 26.2706 8.57381C26.2706 8.50606 26.2572 8.43897 26.2312 8.3764C26.2052 8.31384 26.167 8.25704 26.119 8.20927L24.6603 6.75108C24.6124 6.70315 24.5556 6.66513 24.4931 6.63919C24.4305 6.61325 24.3635 6.5999 24.2957 6.5999C24.228 6.5999 24.161 6.61325 24.0984 6.63919C24.0359 6.66513 23.979 6.70315 23.9312 6.75108L23.2021 7.48017C23.1529 7.43353 23.0876 7.40754 23.0198 7.40754C22.952 7.40754 22.8868 7.43353 22.8376 7.48017L22.5947 7.72303C20.6171 6.22884 18.2473 5.34269 15.7745 5.17275C15.7164 5.16859 15.6586 5.18423 15.6105 5.21714C15.5624 5.25005 15.5269 5.29827 15.5097 5.35396C15.4926 5.40964 15.4948 5.46949 15.516 5.52376C15.5372 5.57803 15.5762 5.62352 15.6265 5.6528C17.4919 6.74551 19.243 8.02258 20.8534 9.46481L20.6503 9.66848C20.602 9.7169 20.575 9.7825 20.5751 9.85086C20.5751 9.91923 20.6024 9.98475 20.6508 10.033L16.0669 14.6169C16.019 14.6648 15.981 14.7216 15.9551 14.7842C15.9292 14.8467 15.9159 14.9138 15.9159 14.9815C15.9159 15.0492 15.9292 15.1162 15.9551 15.1788C15.981 15.2413 16.019 15.2982 16.0669 15.346C16.1148 15.3939 16.1716 15.4319 16.2341 15.4578C16.2967 15.4837 16.3637 15.497 16.4314 15.497C16.4991 15.497 16.5662 15.4837 16.6287 15.4578C16.6913 15.4319 16.7481 15.3939 16.796 15.346L21.3799 10.7621L22.8381 12.2203C22.862 12.2444 22.8904 12.2636 22.9217 12.2767C22.953 12.2898 22.9867 12.2965 23.0206 12.2965C23.0546 12.2965 23.0882 12.2898 23.1195 12.2767C23.1508 12.2636 23.1793 12.2444 23.2031 12.2203L23.4063 12.0172C24.8485 13.6275 26.1255 15.3784 27.2183 17.2435C27.2476 17.2938 27.293 17.3328 27.3472 17.354C27.4014 17.3752 27.4612 17.3774 27.5169 17.3603C27.5725 17.3433 27.6207 17.3078 27.6537 17.2598C27.6866 17.2119 27.7024 17.1541 27.6984 17.0961C27.5267 14.6235 26.6402 12.2542 25.1465 10.2764V10.2764ZM23.9312 8.2103L24.2957 7.84575L25.0248 8.57484L24.6603 8.93939L23.9312 8.2103ZM16.8945 5.82347C18.8263 6.1447 20.6529 6.92428 22.2214 8.09686L21.2149 9.10387C19.8674 7.8935 18.4223 6.79631 16.8945 5.82347V5.82347ZM21.1968 9.85101L23.0196 8.02777L24.8428 9.85101L23.0196 11.6737L21.1968 9.85101V9.85101ZM23.7667 11.6557L24.7737 10.6487C25.9463 12.2171 26.7257 14.0438 27.0466 15.9756C26.0742 14.4477 24.9772 13.0029 23.7667 11.6557V11.6557Z" fill="#024665"/>
<path d="M13.3138 12.5944C13.4144 12.4937 13.4144 12.3305 13.3137 12.2298C13.2131 12.1291 13.0498 12.1291 12.9491 12.2298C12.8485 12.3305 12.8485 12.4937 12.9492 12.5944C13.0498 12.6951 13.2131 12.6951 13.3138 12.5944Z" fill="#024665"/>
<path d="M12.5843 13.3237C12.6849 13.223 12.6849 13.0597 12.5843 12.9591C12.4836 12.8584 12.3203 12.8584 12.2197 12.9591C12.119 13.0598 12.119 13.223 12.2197 13.3237C12.3203 13.4244 12.4836 13.4244 12.5843 13.3237Z" fill="#024665"/>
<path d="M27.4394 24.5324L25.9807 23.0742C25.9324 23.0259 25.8668 22.9987 25.7984 22.9987C25.7301 22.9987 25.6645 23.0259 25.6162 23.0742L25.4336 23.2567L14.9546 12.7767L15.3191 12.4121C15.3474 12.3839 15.3687 12.3496 15.3815 12.3117C15.3942 12.2739 15.398 12.2336 15.3925 12.1941C15.387 12.1545 15.3723 12.1168 15.3498 12.0839C15.3272 12.0509 15.2973 12.0237 15.2624 12.0043L14.3895 11.5191L15.8667 10.0423C15.9148 9.99454 15.9529 9.93774 15.9789 9.87517C16.005 9.81261 16.0183 9.74552 16.0183 9.67777C16.0183 9.61001 16.005 9.54292 15.9789 9.48036C15.9529 9.41779 15.9148 9.36099 15.8667 9.31322L13.1081 6.55411C12.5531 5.99553 11.8642 5.58833 11.1073 5.37126C10.3503 5.1542 9.55034 5.13449 8.78359 5.31403L6.27147 5.89359C6.17723 5.9153 6.091 5.96308 6.02261 6.03146C5.95423 6.09984 5.90646 6.18607 5.88475 6.28031L5.30519 8.79244C5.12545 9.55917 5.14506 10.3592 5.36213 11.1162C5.57921 11.8732 5.98652 12.562 6.54527 13.117L9.30386 15.8761C9.40055 15.9728 9.53168 16.0271 9.66841 16.0271C9.80513 16.0271 9.93626 15.9728 10.033 15.8761L11.5097 14.3988L11.9949 15.2728C12.0143 15.3077 12.0415 15.3377 12.0744 15.3603C12.1073 15.3829 12.145 15.3976 12.1846 15.4031C12.2241 15.4087 12.2644 15.405 12.3023 15.3923C12.3401 15.3796 12.3745 15.3583 12.4028 15.33L12.7673 14.965L23.2469 25.4445L23.0643 25.6271C23.016 25.6754 22.9889 25.741 22.9889 25.8094C22.9889 25.8777 23.016 25.9433 23.0643 25.9916L23.7929 26.7202C23.7932 26.7205 23.7934 26.7208 23.7934 26.7212L24.523 27.4503C24.7664 27.6942 25.0902 27.8278 25.4347 27.8278C25.7791 27.8278 26.1029 27.6937 26.3463 27.4503L27.4405 26.3567C27.6816 26.1143 27.8168 25.7862 27.8166 25.4443C27.8164 25.1024 27.6808 24.7745 27.4394 24.5324V24.5324ZM9.66789 14.7825L7.27384 12.3879C6.83939 11.9562 6.52266 11.4205 6.35379 10.8317C6.18493 10.243 6.16954 9.62083 6.30911 9.02447L6.81597 6.82636L9.01408 6.3195C9.61037 6.17917 10.2327 6.19412 10.8215 6.36293C11.4104 6.53175 11.9461 6.84878 12.3775 7.28372L14.7715 9.67828L13.4505 10.9988L11.98 10.182C11.931 10.1549 11.8745 10.1445 11.8191 10.1523C11.7636 10.1601 11.7122 10.1857 11.6726 10.2254L10.2139 11.6835C10.1743 11.7232 10.1487 11.7747 10.1409 11.8303C10.1332 11.8858 10.1438 11.9424 10.1711 11.9914L10.9879 13.4619L9.66789 14.7825V14.7825ZM12.2795 14.7232L10.7167 11.9104L11.9 10.7271L14.7128 12.2894L14.2255 12.7767L12.7683 14.2338L12.7668 14.2349L12.7658 14.2364L12.2795 14.7232V14.7232ZM23.9755 24.7144L13.4959 14.2354L14.225 13.5063L24.7045 23.9858L23.9755 24.7144C23.9755 24.7149 23.9755 24.7149 23.9755 24.7144ZM25.4342 23.9858C25.4342 23.9858 25.4342 23.9853 25.4342 23.9858C25.4342 23.9853 25.4342 23.9853 25.4342 23.9858L25.7987 23.6213L26.1632 23.9858L23.976 26.1736L23.6114 25.8086L25.4342 23.9858V23.9858ZM27.0749 25.9911L25.9807 27.0847C25.6889 27.3766 25.1789 27.3766 24.8871 27.0847L24.34 26.5377L26.5273 24.3499L27.0744 24.897C27.3765 25.1986 27.3765 25.6895 27.0749 25.9911V25.9911Z" fill="#024665"/>
</svg>
