<svg width="31" height="31" viewBox="0 0 31 31" fill="none" xmlns="http://www.w3.org/2000/svg">
<path d="M15.5 17.4375C18.1751 17.4375 20.3438 15.2689 20.3438 12.5938C20.3438 9.91862 18.1751 7.75 15.5 7.75C12.8249 7.75 10.6562 9.91862 10.6562 12.5938C10.6562 15.2689 12.8249 17.4375 15.5 17.4375Z" fill="#FFE66D"/>
<path d="M15.9238 15.0156H15.0762C14.1074 15.0156 13.3203 14.3637 13.3203 13.5625H14.2891C14.2891 13.7916 14.6121 14.0469 15.0762 14.0469H15.9238C16.3879 14.0469 16.7109 13.7916 16.7109 13.5625C16.7109 13.3334 16.3879 13.0781 15.9238 13.0781H15.0762C14.1074 13.0781 13.3203 12.4262 13.3203 11.625C13.3203 10.8238 14.1079 10.1719 15.0762 10.1719H15.9238C16.8926 10.1719 17.6797 10.8238 17.6797 11.625H16.7109C16.7109 11.3959 16.3879 11.1406 15.9238 11.1406H15.0762C14.6121 11.1406 14.2891 11.3959 14.2891 11.625C14.2891 11.8541 14.6121 12.1094 15.0762 12.1094H15.9238C16.8926 12.1094 17.6797 12.7613 17.6797 13.5625C17.6797 14.3637 16.8921 15.0156 15.9238 15.0156Z" fill="#5E6573"/>
<path d="M15.9844 9.20312H15.0156V15.9844H15.9844V9.20312Z" fill="#5E6573"/>
<path d="M15.9844 2.42188H15.0156V5.32812H15.9844V2.42188Z" fill="#5E6573"/>
<path d="M12.5938 4.35938H11.625V6.29688H12.5938V4.35938Z" fill="#5E6573"/>
<path d="M19.375 3.875H18.4062V6.29688H19.375V3.875Z" fill="#5E6573"/>
<path d="M15.9844 0.96875H15.0156V1.9375H15.9844V0.96875Z" fill="#5E6573"/>
<path d="M19.375 2.42188H18.4062V3.39062H19.375V2.42188Z" fill="#5E6573"/>
<path d="M12.5938 2.90625H11.625V3.875H12.5938V2.90625Z" fill="#5E6573"/>
<path d="M4.33765 25.6719H6.75952L13.5335 30.0312L29.6123 19.5688C29.7151 19.5081 29.8038 19.4264 29.8728 19.3291C29.9419 19.2317 29.9896 19.121 30.0129 19.0039C30.0362 18.8869 30.0346 18.7663 30.0081 18.65C29.9817 18.5336 29.931 18.4242 29.8594 18.3288C29.7582 18.2 29.6286 18.0964 29.4809 18.0258C29.3331 17.9552 29.1711 17.9197 29.0074 17.9219C28.925 17.9219 13.2434 21.235 13.2434 21.235L13.2191 21.2398L8.50473 17.9219H4.35702L4.33765 25.6719Z" fill="#FFCDB2"/>
<path d="M4.35695 15.9844H1.45264C1.1854 15.9844 0.96875 16.201 0.96875 16.4683V27.1255C0.96875 27.3927 1.1854 27.6094 1.45264 27.6094H4.35695C4.6242 27.6094 4.84084 27.3927 4.84084 27.1255V16.4683C4.84084 16.201 4.6242 15.9844 4.35695 15.9844Z" fill="#457B9D"/>
<path d="M7.65796 17.9219L15.0486 23.1483C15.1386 23.231 15.2108 23.3313 15.2607 23.4429C15.3107 23.5545 15.3374 23.6751 15.3392 23.7973C15.3307 23.9699 15.2765 24.1371 15.1821 24.2818C15.0877 24.4265 14.9565 24.5435 14.802 24.6208L14.6906 24.6789C14.348 24.8629 13.9477 24.908 13.5727 24.8048L13.1324 24.6837C12.9952 24.643 12.8647 24.5827 12.7449 24.5045L10.6441 23.1095L10.3777 23.5116L12.4736 24.9066C12.6371 25.0153 12.817 25.0971 13.0064 25.1487L13.4424 25.2698C13.6176 25.3177 13.7984 25.3422 13.98 25.3425C14.3094 25.3432 14.6338 25.2616 14.9236 25.1052L15.035 25.0422C15.2662 24.9247 15.4615 24.7471 15.6004 24.5281C15.7392 24.309 15.8165 24.0566 15.824 23.7973C15.8211 23.6025 15.7773 23.4104 15.6956 23.2336C15.6138 23.0567 15.4959 22.8989 15.3494 22.7705L8.49496 17.9219H7.65796Z" fill="#CCA38E"/>
</svg>
