<svg width="37" height="37" viewBox="0 0 37 37" fill="none" xmlns="http://www.w3.org/2000/svg">
<path d="M31.7144 10.5728H13.2143C12.9808 10.5731 12.7568 10.666 12.5917 10.8311C12.4265 10.9963 12.3336 11.2202 12.3334 11.4538V13.6562C12.3336 13.8898 12.4265 14.1137 12.5917 14.2789C12.7568 14.444 12.9808 14.5369 13.2143 14.5372V16.8632C13.2529 16.9309 13.2938 16.9971 13.3275 17.0679L13.6548 17.7563L13.9822 17.0679C14.0158 16.9971 14.0568 16.9309 14.0953 16.8632V14.5372H20.9227V19.3825H20.1192C20.0229 19.6961 19.8794 19.9931 19.6937 20.2635H30.8334V21.5849H23.7278C23.7657 21.7287 23.7852 21.8767 23.7858 22.0254V23.3469C23.7857 23.6107 23.7263 23.8711 23.6119 24.1088C23.4975 24.3465 23.3311 24.5554 23.1251 24.7201V27.3112H22.9048V28.1922H30.3929C30.7433 28.1918 31.0792 28.0525 31.3269 27.8047C31.5746 27.557 31.714 27.2211 31.7144 26.8707V14.5372C31.9479 14.5369 32.1719 14.444 32.337 14.2789C32.5022 14.1137 32.5951 13.8898 32.5953 13.6562V11.4538C32.5951 11.2202 32.5022 10.9963 32.337 10.8311C32.1719 10.666 31.9479 10.5731 31.7144 10.5728V10.5728ZM21.8036 19.3825V14.5372H23.1251V19.3825H21.8036ZM30.3929 27.3112H24.006V22.4659H30.8334V26.8708C30.8333 26.9875 30.7868 27.0995 30.7042 27.182C30.6217 27.2646 30.5097 27.3111 30.3929 27.3112V27.3112ZM30.8334 19.3825H24.006V14.5372H30.8334V19.3825ZM13.2143 13.6562V11.4538H31.7144L31.715 13.6562L13.2143 13.6562Z" fill="#2D4356"/>
<path d="M14.6457 12.1145H14.5356C14.4188 12.1145 14.3067 12.1609 14.2241 12.2435C14.1415 12.3261 14.0951 12.4382 14.0951 12.555C14.0951 12.6718 14.1415 12.7839 14.2241 12.8665C14.3067 12.9491 14.4188 12.9955 14.5356 12.9955H14.6457C14.7625 12.9955 14.8746 12.9491 14.9572 12.8665C15.0398 12.7839 15.0862 12.6718 15.0862 12.555C15.0862 12.4382 15.0398 12.3261 14.9572 12.2435C14.8746 12.1609 14.7625 12.1145 14.6457 12.1145V12.1145Z" fill="#0BCEB2"/>
<path d="M28.5209 12.1145H28.3007C28.1838 12.1145 28.0718 12.1609 27.9892 12.2435C27.9066 12.3261 27.8602 12.4382 27.8602 12.555C27.8602 12.6718 27.9066 12.7839 27.9892 12.8665C28.0718 12.9491 28.1838 12.9955 28.3007 12.9955H28.5209C28.6377 12.9955 28.7498 12.9491 28.8324 12.8665C28.915 12.7839 28.9614 12.6718 28.9614 12.555C28.9614 12.4382 28.915 12.3261 28.8324 12.2435C28.7498 12.1609 28.6377 12.1145 28.5209 12.1145ZM24.5566 12.1145H24.3364C24.2195 12.1145 24.1075 12.1609 24.0249 12.2435C23.9423 12.3261 23.8959 12.4382 23.8959 12.555C23.8959 12.6718 23.9423 12.7839 24.0249 12.8665C24.1075 12.9491 24.2195 12.9955 24.3364 12.9955H24.5566C24.6734 12.9955 24.7855 12.9491 24.8681 12.8665C24.9507 12.7839 24.9971 12.6718 24.9971 12.555C24.9971 12.4382 24.9507 12.3261 24.8681 12.2435C24.7855 12.1609 24.6734 12.1145 24.5566 12.1145V12.1145Z" fill="#2D4356"/>
<path d="M26.5388 12.1145H26.3185C26.2017 12.1145 26.0897 12.1609 26.0071 12.2435C25.9245 12.3261 25.8781 12.4382 25.8781 12.555C25.8781 12.6718 25.9245 12.7839 26.0071 12.8665C26.0897 12.9491 26.2017 12.9955 26.3185 12.9955H26.5388C26.6556 12.9955 26.7676 12.9491 26.8502 12.8665C26.9329 12.7839 26.9793 12.6718 26.9793 12.555C26.9793 12.4382 26.9329 12.3261 26.8502 12.2435C26.7676 12.1609 26.6556 12.1145 26.5388 12.1145V12.1145Z" fill="#0BCEB2"/>
<path d="M20.5922 12.1145H20.372C20.2552 12.1145 20.1431 12.1609 20.0605 12.2435C19.9779 12.3261 19.9315 12.4382 19.9315 12.555C19.9315 12.6718 19.9779 12.7839 20.0605 12.8665C20.1431 12.9491 20.2552 12.9955 20.372 12.9955H20.5922C20.7091 12.9955 20.8211 12.9491 20.9037 12.8665C20.9863 12.7839 21.0327 12.6718 21.0327 12.555C21.0327 12.4382 20.9863 12.3261 20.9037 12.2435C20.8211 12.1609 20.7091 12.1145 20.5922 12.1145V12.1145Z" fill="#2D4356"/>
<path d="M18.6101 12.1145H18.3898C18.273 12.1145 18.161 12.1609 18.0784 12.2435C17.9957 12.3261 17.9493 12.4382 17.9493 12.555C17.9493 12.6718 17.9957 12.7839 18.0784 12.8665C18.161 12.9491 18.273 12.9955 18.3898 12.9955H18.6101C18.7269 12.9955 18.8389 12.9491 18.9215 12.8665C19.0041 12.7839 19.0505 12.6718 19.0505 12.555C19.0505 12.4382 19.0041 12.3261 18.9215 12.2435C18.8389 12.1609 18.7269 12.1145 18.6101 12.1145ZM22.5744 12.1145H22.3541C22.2373 12.1145 22.1253 12.1609 22.0426 12.2435C21.96 12.3261 21.9136 12.4382 21.9136 12.555C21.9136 12.6718 21.96 12.7839 22.0426 12.8665C22.1253 12.9491 22.2373 12.9955 22.3541 12.9955H22.5744C22.6912 12.9955 22.8032 12.9491 22.8858 12.8665C22.9684 12.7839 23.0148 12.6718 23.0148 12.555C23.0148 12.4382 22.9684 12.3261 22.8858 12.2435C22.8032 12.1609 22.6912 12.1145 22.5744 12.1145V12.1145Z" fill="#0BCEB2"/>
<path d="M16.628 12.1145H16.4078C16.2909 12.1145 16.1789 12.1609 16.0963 12.2435C16.0137 12.3261 15.9673 12.4382 15.9673 12.555C15.9673 12.6718 16.0137 12.7839 16.0963 12.8665C16.1789 12.9491 16.2909 12.9955 16.4078 12.9955H16.628C16.7448 12.9955 16.8569 12.9491 16.9395 12.8665C17.0221 12.7839 17.0685 12.6718 17.0685 12.555C17.0685 12.4382 17.0221 12.3261 16.9395 12.2435C16.8569 12.1609 16.7448 12.1145 16.628 12.1145Z" fill="#2D4356"/>
<path d="M30.3928 12.1145H30.2827C30.1659 12.1145 30.0538 12.1609 29.9712 12.2435C29.8886 12.3262 29.8422 12.4382 29.8422 12.555C29.8422 12.6718 29.8886 12.7839 29.9712 12.8665C30.0538 12.9491 30.1659 12.9955 30.2827 12.9955H30.3928C30.5097 12.9955 30.6217 12.9491 30.7043 12.8665C30.7869 12.7839 30.8333 12.6718 30.8333 12.555C30.8333 12.4382 30.7869 12.3262 30.7043 12.2435C30.6217 12.1609 30.5097 12.1145 30.3928 12.1145ZM17.6631 19.7742L16.6747 20.2635H18.5189C18.7762 20.0537 18.9859 19.7915 19.1342 19.4944C19.2824 19.1973 19.3657 18.872 19.3785 18.5403C19.3913 18.2085 19.3334 17.8778 19.2086 17.5701C19.0838 17.2624 18.8949 16.9848 18.6546 16.7557L18.6468 16.7485C18.3673 16.4838 18.0291 16.2888 17.6599 16.1795C17.2907 16.0702 16.901 16.0496 16.5223 16.1195C16.1465 16.1848 15.7918 16.3393 15.4882 16.5702C15.1846 16.8011 14.9409 17.1015 14.7776 17.4463L13.4379 20.2635H14.4135L15.5734 17.8246C15.6773 17.6063 15.8322 17.4162 16.025 17.2703C16.2177 17.1243 16.4427 17.0269 16.681 16.9861C16.7775 16.9683 16.8754 16.9594 16.9735 16.9593C17.3725 16.9583 17.7562 17.1128 18.0431 17.39L18.0494 17.3958C18.2192 17.557 18.3474 17.7569 18.4229 17.9786C18.4985 18.2002 18.5191 18.4368 18.483 18.6681C18.4465 18.9053 18.3528 19.1299 18.21 19.3227C18.0671 19.5154 17.8794 19.6704 17.6631 19.7742ZM5.73428 16.2985C5.74869 16.2985 5.7631 16.2977 5.77772 16.2963C5.89381 16.2848 6.0006 16.2277 6.07473 16.1376C6.14885 16.0476 6.18428 15.9318 6.17325 15.8156C6.12141 14.9803 6.33883 14.1504 6.79356 13.4477C7.2483 12.7451 7.91638 12.2069 8.69966 11.912C8.62535 12.0016 8.5895 12.1169 8.59996 12.2328C8.61043 12.3487 8.66634 12.4557 8.75549 12.5305C8.84464 12.6053 8.95977 12.6417 9.07571 12.6319C9.19166 12.622 9.29899 12.5667 9.37424 12.4779L10.4666 11.1917C10.5161 11.1334 10.5496 11.0632 10.5638 10.988C10.5779 10.9129 10.5722 10.8353 10.5473 10.763C10.5224 10.6907 10.479 10.6261 10.4215 10.5756C10.3641 10.5251 10.2944 10.4905 10.2195 10.4751L8.59459 10.1414C8.48032 10.1183 8.36156 10.1414 8.26432 10.2057C8.16708 10.27 8.09931 10.3703 8.07585 10.4845C8.0524 10.5987 8.07518 10.7175 8.13919 10.815C8.20321 10.9124 8.30324 10.9805 8.41737 11.0043L8.53662 11.0288C4.98211 12.3548 5.29306 15.8665 5.2966 15.9031C5.30762 16.0115 5.35849 16.1119 5.43935 16.185C5.52021 16.2581 5.6253 16.2985 5.73428 16.2985V16.2985ZM17.4813 9.59197L17.6831 9.69187H19.669L17.8723 8.80241C17.6361 8.68905 17.4311 8.51977 17.275 8.30925C17.119 8.09873 17.0167 7.85331 16.977 7.5943C16.9376 7.33994 16.9607 7.07981 17.0444 6.8364C17.1281 6.59299 17.2698 6.37362 17.4573 6.19725C17.6516 6.00986 17.8881 5.87196 18.1469 5.79518C18.4058 5.71841 18.6792 5.70501 18.9443 5.75611C19.2045 5.80068 19.4502 5.90715 19.6607 6.06653C19.8712 6.22591 20.0402 6.43354 20.1537 6.67192L21.4888 9.47936L21.9765 8.45372L20.9492 6.29361C20.7765 5.92876 20.5186 5.61078 20.1972 5.36643C19.8759 5.12209 19.5005 4.95854 19.1028 4.88956C18.7005 4.81534 18.2863 4.83756 17.8942 4.9544C17.5021 5.07123 17.1434 5.27935 16.8473 5.56169L16.846 5.56298C16.5559 5.83647 16.3368 6.17661 16.2079 6.5539C16.079 6.93119 16.044 7.33424 16.1061 7.72808C16.1665 8.12716 16.3233 8.5055 16.563 8.83028C16.8026 9.15507 17.1178 9.41652 17.4813 9.59197V9.59197ZM24.7746 6.67193C24.8881 6.43355 25.0572 6.22594 25.2677 6.06656C25.4782 5.90719 25.7239 5.80072 25.9842 5.75612C26.208 5.71515 26.4377 5.71978 26.6597 5.76975C26.8816 5.81971 27.0912 5.91398 27.2758 6.0469C27.4605 6.17982 27.6164 6.34865 27.7342 6.54327C27.852 6.73789 27.9293 6.9543 27.9614 7.17952C27.9963 7.51036 27.928 7.8439 27.766 8.13443C27.6039 8.42496 27.356 8.65827 27.0561 8.8024L25.2595 9.69187H27.2453L27.4471 9.59196C27.8106 9.41652 28.1259 9.15507 28.3655 8.83028C28.6051 8.50549 28.7619 8.12716 28.8223 7.72808C28.8841 7.29685 28.8328 6.85696 28.6734 6.45152C28.5141 6.04609 28.2521 5.689 27.9132 5.41525C27.6226 5.18434 27.2861 5.01803 26.9261 4.92738C26.5662 4.83673 26.191 4.82384 25.8257 4.88956C25.4279 4.95856 25.0525 5.12212 24.7312 5.36646C24.4098 5.6108 24.1519 5.92877 23.979 6.2936L22.363 9.69187H23.3385L24.7746 6.67193ZM8.66255 16.7485L8.6548 16.7558C8.41445 16.9848 8.22559 17.2624 8.10078 17.5701C7.97597 17.8778 7.91806 18.2085 7.93089 18.5403C7.94373 18.872 8.02702 19.1973 8.17523 19.4944C8.32344 19.7915 8.53318 20.0537 8.79052 20.2635H10.6347L9.64631 19.7742C9.43001 19.6704 9.24229 19.5154 9.09942 19.3227C8.95655 19.1299 8.86285 18.9053 8.82643 18.6681C8.79034 18.4369 8.81089 18.2004 8.88634 17.9789C8.96179 17.7574 9.08988 17.5575 9.2596 17.3964L9.26627 17.39C9.44434 17.2185 9.66102 17.0923 9.89806 17.022C10.1351 16.9517 10.3856 16.9394 10.6283 16.9861C10.8667 17.0269 11.0917 17.1243 11.2844 17.2703C11.4772 17.4162 11.6321 17.6063 11.736 17.8246L12.6791 19.8078L13.167 18.782L12.5318 17.4463C12.3685 17.1015 12.1248 16.8011 11.8212 16.5702C11.5176 16.3393 11.1629 16.1848 10.7871 16.1195C10.4085 16.0495 10.0186 16.07 9.64941 16.1793C9.2802 16.2887 8.94205 16.4837 8.66255 16.7485V16.7485Z" fill="#0BCEB2"/>
<path d="M0.440477 33.0374C0.683746 33.0374 0.880954 32.8402 0.880954 32.597C0.880954 32.3537 0.683746 32.1565 0.440477 32.1565C0.197208 32.1565 0 32.3537 0 32.597C0 32.8402 0.197208 33.0374 0.440477 33.0374Z" fill="#2D4356"/>
<path d="M2.4226 32.1566H1.76189C1.64507 32.1566 1.53303 32.203 1.45042 32.2856C1.36782 32.3682 1.32141 32.4802 1.32141 32.597C1.32141 32.7139 1.36782 32.8259 1.45042 32.9085C1.53303 32.9911 1.64507 33.0375 1.76189 33.0375H2.4226C2.53943 33.0375 2.65146 32.9911 2.73407 32.9085C2.81667 32.8259 2.86308 32.7139 2.86308 32.597C2.86308 32.4802 2.81667 32.3682 2.73407 32.2856C2.65146 32.203 2.53943 32.1566 2.4226 32.1566ZM35.2382 32.1566H34.5774C34.4606 32.1566 34.3486 32.203 34.266 32.2856C34.1834 32.3682 34.137 32.4802 34.137 32.597C34.137 32.7139 34.1834 32.8259 34.266 32.9085C34.3486 32.9911 34.4606 33.0375 34.5774 33.0375H35.2382C35.355 33.0375 35.467 32.9911 35.5496 32.9085C35.6322 32.8259 35.6786 32.7139 35.6786 32.597C35.6786 32.4802 35.6322 32.3682 35.5496 32.2856C35.467 32.203 35.355 32.1566 35.2382 32.1566Z" fill="#2D4356"/>
<path d="M36.5595 33.0374C36.8028 33.0374 37 32.8402 37 32.597C37 32.3537 36.8028 32.1565 36.5595 32.1565C36.3162 32.1565 36.119 32.3537 36.119 32.597C36.119 32.8402 36.3162 33.0374 36.5595 33.0374Z" fill="#2D4356"/>
<path d="M26.022 33.9185H24.1923C24.0816 33.9274 23.9783 33.9776 23.9029 34.0592C23.8276 34.1409 23.7857 34.2479 23.7857 34.359C23.7857 34.47 23.8276 34.5771 23.9029 34.6587C23.9783 34.7403 24.0816 34.7906 24.1923 34.7994H26.022C26.1327 34.7906 26.2361 34.7403 26.3114 34.6587C26.3868 34.5771 26.4286 34.47 26.4286 34.359C26.4286 34.2479 26.3868 34.1409 26.3114 34.0592C26.2361 33.9776 26.1327 33.9274 26.022 33.9185ZM12.8077 33.9185H10.978C10.8673 33.9274 10.7639 33.9776 10.6886 34.0592C10.6133 34.1409 10.5714 34.2479 10.5714 34.359C10.5714 34.47 10.6133 34.5771 10.6886 34.6587C10.7639 34.7403 10.8673 34.7906 10.978 34.7994H12.8077C12.9184 34.7906 13.0218 34.7403 13.0971 34.6587C13.1724 34.5771 13.2143 34.47 13.2143 34.359C13.2143 34.2479 13.1724 34.1409 13.0971 34.0592C13.0218 33.9776 12.9184 33.9274 12.8077 33.9185V33.9185ZM22.9048 33.9185H14.0952C13.9784 33.9185 13.8664 33.9649 13.7838 34.0475C13.7012 34.1301 13.6548 34.2421 13.6548 34.359C13.6548 34.4758 13.7012 34.5878 13.7838 34.6704C13.8664 34.753 13.9784 34.7994 14.0952 34.7994H17.6058V35.2399H15.8571C15.7403 35.2399 15.6283 35.2863 15.5457 35.3689C15.4631 35.4515 15.4167 35.5636 15.4167 35.6804C15.4167 35.7972 15.4631 35.9092 15.5457 35.9919C15.6283 36.0745 15.7403 36.1209 15.8571 36.1209H21.3631C21.4799 36.1209 21.592 36.0745 21.6746 35.9919C21.7572 35.9092 21.8036 35.7972 21.8036 35.6804C21.8036 35.5636 21.7572 35.4515 21.6746 35.3689C21.592 35.2863 21.4799 35.2399 21.3631 35.2399H19.3942V34.7994H22.9048C23.0216 34.7994 23.1336 34.753 23.2162 34.6704C23.2989 34.5878 23.3453 34.4758 23.3453 34.359C23.3453 34.2421 23.2989 34.1301 23.2162 34.0475C23.1336 33.9649 23.0216 33.9185 22.9048 33.9185Z" fill="#0BCEB2"/>
<path d="M33.1946 32.1566H21.9467C21.9974 32.0152 22.0235 31.8662 22.0238 31.7161V24.2278C22.2574 24.2276 22.4813 24.1347 22.6465 23.9695C22.8117 23.8044 22.9045 23.5804 22.9048 23.3469V22.0254C22.9045 21.7918 22.8117 21.5679 22.6465 21.4027C22.4813 21.2376 22.2574 21.1447 22.0238 21.1444H5.28569C5.05212 21.1447 4.82818 21.2376 4.66302 21.4027C4.49785 21.5679 4.40497 21.7918 4.40474 22.0254V23.3469C4.40497 23.5804 4.49785 23.8044 4.66302 23.9695C4.82818 24.1347 5.05212 24.2276 5.28569 24.2278V31.7161C5.28601 31.8662 5.31208 32.0152 5.36277 32.1566H3.8054C3.74274 32.1484 3.67905 32.1536 3.61859 32.172C3.55812 32.1904 3.50228 32.2215 3.45479 32.2632C3.4073 32.3049 3.36924 32.3562 3.34318 32.4138C3.31711 32.4714 3.30363 32.5338 3.30363 32.597C3.30363 32.6602 3.31711 32.7227 3.34318 32.7803C3.36924 32.8378 3.4073 32.8892 3.45479 32.9309C3.50228 32.9726 3.55812 33.0036 3.61859 33.022C3.67905 33.0404 3.74274 33.0457 3.8054 33.0375H33.1946C33.2573 33.0457 33.321 33.0404 33.3814 33.022C33.4419 33.0036 33.4977 32.9726 33.5452 32.9309C33.5927 32.8892 33.6308 32.8378 33.6568 32.7803C33.6829 32.7227 33.6964 32.6602 33.6964 32.597C33.6964 32.5338 33.6829 32.4714 33.6568 32.4138C33.6308 32.3562 33.5927 32.3049 33.5452 32.2632C33.4977 32.2215 33.4419 32.1904 33.3814 32.172C33.321 32.1536 33.2573 32.1484 33.1946 32.1566V32.1566ZM21.1429 27.7483V28.6292H6.16665V27.7483H21.1429ZM6.16665 26.8673V24.2278H12.3333V26.8673H6.16665ZM13.2143 26.8673V24.2278H14.0952V26.8673H13.2143ZM14.9762 26.8673V24.2278H21.1429V26.8673H14.9762ZM21.1429 29.5102V31.7161C21.1427 31.8328 21.0963 31.9448 21.0137 32.0274C20.9311 32.1099 20.8192 32.1564 20.7024 32.1565H14.9762V29.5102H21.1429ZM14.0952 29.5102V32.1565H13.2143V29.5102H14.0952ZM12.3333 29.5102V32.1565H6.60712C6.49035 32.1564 6.3784 32.1099 6.29582 32.0274C6.21325 31.9448 6.16679 31.8328 6.16665 31.7161V29.5102H12.3333ZM5.28569 22.0254H22.0238L22.0245 23.3469H5.28569V22.0254ZM27.4197 4.0846C27.5503 4.0846 27.6781 4.04585 27.7867 3.97325C27.8954 3.90065 27.9801 3.79746 28.0301 3.67673C28.0801 3.556 28.0932 3.42315 28.0677 3.29498C28.0422 3.16682 27.9793 3.04909 27.8869 2.95669C27.7945 2.86428 27.6767 2.80136 27.5486 2.77586C27.4204 2.75037 27.2876 2.76345 27.1668 2.81346C27.0461 2.86347 26.9429 2.94815 26.8703 3.05681C26.7977 3.16546 26.759 3.29321 26.759 3.42388C26.7592 3.59905 26.8288 3.76699 26.9527 3.89086C27.0766 4.01472 27.2445 4.0844 27.4197 4.0846ZM27.4197 3.09352C27.485 3.09352 27.5489 3.1129 27.6032 3.1492C27.6575 3.1855 27.6999 3.2371 27.7249 3.29746C27.7499 3.35783 27.7564 3.42425 27.7437 3.48833C27.7309 3.55242 27.6995 3.61128 27.6533 3.65748C27.6071 3.70368 27.5482 3.73515 27.4841 3.74789C27.42 3.76064 27.3536 3.7541 27.2932 3.72909C27.2329 3.70409 27.1813 3.66175 27.145 3.60742C27.1087 3.55309 27.0893 3.48922 27.0893 3.42388C27.0894 3.33629 27.1242 3.25231 27.1862 3.19038C27.2481 3.12844 27.3321 3.09361 27.4197 3.09352ZM34.8648 14.7577C34.7777 14.7577 34.6925 14.7835 34.6201 14.8319C34.5476 14.8803 34.4912 14.9491 34.4578 15.0296C34.4245 15.1101 34.4158 15.1987 34.4328 15.2841C34.4498 15.3696 34.4917 15.448 34.5533 15.5097C34.6149 15.5713 34.6934 15.6132 34.7788 15.6302C34.8643 15.6472 34.9528 15.6385 35.0333 15.6051C35.1138 15.5718 35.1826 15.5153 35.231 15.4429C35.2794 15.3705 35.3052 15.2853 35.3052 15.1982C35.3051 15.0814 35.2587 14.9694 35.1761 14.8869C35.0935 14.8043 34.9816 14.7578 34.8648 14.7577V14.7577ZM34.8648 15.4184C34.8212 15.4184 34.7786 15.4055 34.7424 15.3813C34.7062 15.3571 34.678 15.3227 34.6613 15.2825C34.6446 15.2422 34.6403 15.1979 34.6488 15.1552C34.6573 15.1125 34.6782 15.0733 34.709 15.0425C34.7398 15.0117 34.7791 14.9907 34.8218 14.9822C34.8645 14.9737 34.9088 14.978 34.9491 14.9947C34.9893 15.0114 35.0237 15.0396 35.0479 15.0758C35.0721 15.112 35.085 15.1546 35.085 15.1982C35.085 15.2566 35.0617 15.3126 35.0204 15.3539C34.9791 15.3951 34.9232 15.4184 34.8648 15.4184V15.4184ZM13.167 6.16841C13.0799 6.16841 12.9947 6.19424 12.9223 6.24264C12.8499 6.29104 12.7934 6.35983 12.7601 6.44032C12.7267 6.52081 12.718 6.60937 12.735 6.69482C12.752 6.78026 12.794 6.85875 12.8556 6.92035C12.9172 6.98195 12.9956 7.0239 13.0811 7.0409C13.1665 7.05789 13.2551 7.04917 13.3356 7.01583C13.4161 6.98249 13.4849 6.92604 13.5333 6.8536C13.5817 6.78116 13.6075 6.696 13.6075 6.60888C13.6074 6.4921 13.5609 6.38014 13.4783 6.29757C13.3958 6.21499 13.2838 6.16854 13.167 6.16841V6.16841ZM13.167 6.82912C13.1235 6.82912 13.0809 6.81621 13.0447 6.79201C13.0084 6.76781 12.9802 6.73341 12.9635 6.69317C12.9469 6.65292 12.9425 6.60864 12.951 6.56592C12.9595 6.5232 12.9805 6.48395 13.0113 6.45315C13.0421 6.42235 13.0813 6.40138 13.1241 6.39288C13.1668 6.38438 13.2111 6.38874 13.2513 6.40541C13.2915 6.42208 13.3259 6.45031 13.3501 6.48653C13.3743 6.52274 13.3873 6.56533 13.3873 6.60888C13.3872 6.66728 13.364 6.72326 13.3227 6.76455C13.2814 6.80584 13.2254 6.82906 13.167 6.82912ZM34.6445 0.205048C34.5574 0.205048 34.4723 0.230881 34.3998 0.279281C34.3274 0.327682 34.2709 0.396475 34.2376 0.476961C34.2042 0.557448 34.1955 0.646013 34.2125 0.731458C34.2295 0.816902 34.2715 0.895387 34.3331 0.956989C34.3947 1.01859 34.4732 1.06054 34.5586 1.07754C34.644 1.09453 34.7326 1.08581 34.8131 1.05247C34.8936 1.01913 34.9624 0.962677 35.0108 0.890241C35.0592 0.817805 35.085 0.732643 35.085 0.645525C35.0849 0.528744 35.0384 0.416784 34.9559 0.334208C34.8733 0.251631 34.7613 0.205181 34.6445 0.205048V0.205048ZM34.6445 0.865763C34.601 0.865763 34.5584 0.852847 34.5222 0.828646C34.486 0.804446 34.4577 0.77005 34.4411 0.729806C34.4244 0.689563 34.42 0.64528 34.4285 0.602558C34.437 0.559836 34.458 0.520593 34.4888 0.489793C34.5196 0.458992 34.5588 0.438016 34.6016 0.429518C34.6443 0.42102 34.6886 0.425381 34.7288 0.442051C34.7691 0.45872 34.8035 0.486949 34.8277 0.523167C34.8519 0.559385 34.8648 0.601966 34.8648 0.645525C34.8647 0.703918 34.8415 0.759902 34.8002 0.801193C34.7589 0.842483 34.7029 0.865705 34.6445 0.865763ZM3.81113 5.72793C3.81113 5.64081 3.7853 5.55565 3.7369 5.48321C3.6885 5.41078 3.6197 5.35432 3.53922 5.32098C3.45873 5.28764 3.37016 5.27892 3.28472 5.29592C3.19928 5.31291 3.12079 5.35486 3.05919 5.41647C2.99759 5.47807 2.95564 5.55655 2.93864 5.642C2.92164 5.72744 2.93037 5.81601 2.96371 5.89649C2.99704 5.97698 3.0535 6.04577 3.12594 6.09417C3.19837 6.14257 3.28354 6.16841 3.37065 6.16841C3.48743 6.16827 3.59939 6.12182 3.68197 6.03925C3.76455 5.95667 3.811 5.84471 3.81113 5.72793V5.72793ZM3.15041 5.72793C3.15041 5.68437 3.16333 5.64179 3.18753 5.60557C3.21173 5.56935 3.24613 5.54113 3.28637 5.52446C3.32661 5.50779 3.3709 5.50343 3.41362 5.51192C3.45634 5.52042 3.49558 5.5414 3.52639 5.5722C3.55719 5.603 3.57816 5.64224 3.58666 5.68496C3.59516 5.72769 3.5908 5.77197 3.57413 5.81221C3.55746 5.85246 3.52923 5.88685 3.49301 5.91105C3.45679 5.93525 3.41421 5.94817 3.37065 5.94817C3.31226 5.94811 3.25628 5.92489 3.21499 5.8836C3.1737 5.84231 3.15047 5.78632 3.15041 5.72793V5.72793Z" fill="#2D4356"/>
<path d="M2.39805 14.7603L2.72554 14.3295L2.51874 14.2123L2.30841 14.6946H2.30158L2.08795 14.2158L1.87762 14.3363L2.20159 14.7567V14.7638L1.69482 14.6982V14.9325L2.2049 14.8671V14.8739L1.87762 15.2943L2.07386 15.4183L2.29806 14.9325H2.30489L2.51169 15.4148L2.72884 15.2908L2.39805 14.8774V14.8704L2.91825 14.9325V14.6982L2.39805 14.7671V14.7603Z" fill="#0BCEB2"/>
<path d="M17.0099 1.02663L16.8214 1.26867L16.9346 1.34003L17.0636 1.06032H17.0676L17.1865 1.33804L17.3116 1.26669L17.1211 1.02839V1.02443L17.4206 1.06032V0.925318L17.1211 0.964961V0.960996L17.3096 0.713008L17.1907 0.645615L17.0696 0.923336H17.0656L16.9427 0.647377L16.8214 0.716972L17.0081 0.959014V0.962979L16.7163 0.925318V1.06032L17.0099 1.02266V1.02663Z" fill="#0BCEB2"/>
<path d="M34.737 9.80666V9.57695L34.2267 9.64456V9.63774L34.548 9.21532L34.3452 9.10035L34.139 9.57343H34.132L33.9227 9.10366L33.7162 9.22193L34.0342 9.63443V9.64126L33.5371 9.57695V9.80666L34.0375 9.74257V9.7494L33.7162 10.1617L33.9089 10.2833L34.1289 9.80666H34.1353L34.3381 10.28L34.5513 10.1584L34.2267 9.7527V9.74588L34.737 9.80666Z" fill="#0BCEB2"/>
<path d="M7.48791 0.946022L7.76497 0.581748L7.58988 0.48264L7.41214 0.890742H7.4062L7.2256 0.485503L7.04743 0.587474L7.32163 0.943159V0.949106L6.89282 0.893605V1.09182L7.32449 1.03654V1.04227L7.04743 1.39795L7.21371 1.50301L7.40334 1.09182H7.40906L7.58393 1.50014L7.76761 1.39509L7.48791 1.04513V1.0394L7.92794 1.09182V0.893605L7.48791 0.951969V0.946022Z" fill="#0BCEB2"/>
</svg>
