<svg width="40" height="40" viewBox="0 0 40 40" fill="none" xmlns="http://www.w3.org/2000/svg">
<g clip-path="url(#clip0)">
<path d="M39.3719 24.7628C39.1001 24.5735 38.7751 24.4756 38.444 24.4833C38.1129 24.4909 37.7928 24.6037 37.53 24.8053L26.0575 30.2909L16.0378 29.2631L20.0344 27.9844L25.4184 28.5959C26.3986 28.5262 27.3159 28.0877 27.9856 27.3687C28.6554 26.6497 29.0278 25.7036 29.0278 24.7209L19.8303 23.4262L12.8928 24.5997L2.69531 25.8094V37.5331L9.67031 36.3697L25.2262 35.6034C26.2228 35.5693 27.1712 35.1664 27.8875 34.4728L39.5366 27.0863C39.696 26.9318 39.8196 26.7443 39.8989 26.537C39.9782 26.3297 40.0111 26.1076 39.9954 25.8862C39.9797 25.6648 39.9158 25.4495 39.8081 25.2554C39.7003 25.0614 39.5515 24.8932 39.3719 24.7628V24.7628Z" fill="#E1B378"/>
<path d="M39.5372 27.0863L27.8872 34.4738C27.1713 35.1671 26.2237 35.5702 25.2278 35.605L9.67153 36.3706L2.69653 37.5331V36.1675L8.81528 35.1487L24.3715 34.3831C25.3684 34.3484 26.3171 33.9454 27.034 33.2519L38.6809 25.8644C38.8457 25.7056 38.9721 25.5113 39.0506 25.2964C39.1292 25.0814 39.1577 24.8514 39.134 24.6237C39.2183 24.6615 39.2979 24.7087 39.3715 24.7644C39.5513 24.8944 39.7005 25.0623 39.8084 25.2562C39.9163 25.4501 39.9804 25.6653 39.9962 25.8867C40.012 26.108 39.9791 26.3301 39.8998 26.5374C39.8205 26.7446 39.6967 26.932 39.5372 27.0863V27.0863Z" fill="#BD8D5A"/>
<path d="M2.69531 37.8456C2.61243 37.8456 2.53295 37.8127 2.47434 37.7541C2.41574 37.6955 2.38281 37.616 2.38281 37.5331V25.8091C2.38281 25.7326 2.41087 25.6587 2.46167 25.6015C2.51247 25.5443 2.58248 25.5078 2.65844 25.4987L12.8569 24.2894L19.7781 23.1184C19.8098 23.1136 19.8421 23.1136 19.8738 23.1184L29.0716 24.4128C29.1462 24.4233 29.2145 24.4604 29.2639 24.5172C29.3134 24.5741 29.3406 24.6468 29.3406 24.7222C29.3365 25.7824 28.9326 26.8021 28.2097 27.5777C27.4868 28.3533 26.498 28.8277 25.4406 28.9063C25.4215 28.9079 25.4023 28.9079 25.3831 28.9063L20.0656 28.3025L17.5575 29.105L26.0016 29.9709L37.3688 24.5356C37.685 24.3033 38.0661 24.176 38.4585 24.1715C38.8508 24.1671 39.2348 24.2856 39.5563 24.5106C39.7725 24.6679 39.9518 24.8706 40.0815 25.1045C40.2112 25.3384 40.2881 25.5979 40.3069 25.8646C40.3257 26.1314 40.286 26.3991 40.1904 26.6489C40.0949 26.8987 39.9458 27.1245 39.7537 27.3106C39.7384 27.3254 39.7217 27.3386 39.7038 27.35L28.0813 34.7188C27.3124 35.4532 26.3001 35.8789 25.2375 35.9147L9.70438 36.6797L2.74656 37.8413C2.72963 37.8441 2.71249 37.8456 2.69531 37.8456V37.8456ZM3.00781 26.0869V37.1644L9.61875 36.0625C9.63064 36.0605 9.64264 36.0591 9.65469 36.0584L25.2106 35.2922C26.1315 35.2623 27.0083 34.8905 27.67 34.2494C27.6853 34.2346 27.7021 34.2214 27.72 34.21L39.3409 26.8406C39.4628 26.7165 39.5565 26.5675 39.6155 26.4038C39.6745 26.2402 39.6975 26.0657 39.6829 25.8923C39.6683 25.7189 39.6164 25.5508 39.5308 25.3993C39.4452 25.2478 39.3279 25.1166 39.1869 25.0147C38.9688 24.8652 38.7089 24.7886 38.4446 24.7961C38.1803 24.8036 37.9252 24.8946 37.7159 25.0562C37.6998 25.0683 37.6825 25.0787 37.6644 25.0875L26.1922 30.5728C26.1405 30.5978 26.0827 30.6078 26.0256 30.6016L16.0059 29.5741C15.9346 29.5666 15.868 29.5348 15.8174 29.484C15.7667 29.4332 15.7351 29.3666 15.7278 29.2952C15.7204 29.2239 15.7379 29.1522 15.7771 29.0922C15.8164 29.0321 15.8751 28.9875 15.9434 28.9656L19.9391 27.6875C19.9811 27.6742 20.0255 27.6698 20.0694 27.6747L25.4244 28.2813C26.2729 28.2114 27.069 27.8419 27.6701 27.2389C28.2713 26.6359 28.6383 25.8388 28.7056 24.99L19.8347 23.7425L12.9459 24.9078L3.00781 26.0869Z" fill="#2F3A5A"/>
<path d="M0.624634 23.7644H9.58057V37.8222H0.624634V23.7644Z" fill="#81DAFC"/>
<path d="M9.58088 23.7644V37.8237H0.624634V36.0456H7.80276V23.7644H9.58088Z" fill="#3DBCE9"/>
<path d="M9.58031 38.1347H0.625C0.54212 38.1347 0.462634 38.1018 0.404029 38.0432C0.345424 37.9846 0.3125 37.9051 0.3125 37.8222V23.7641C0.3125 23.6812 0.345424 23.6017 0.404029 23.5431C0.462634 23.4845 0.54212 23.4516 0.625 23.4516H9.58031C9.66319 23.4516 9.74268 23.4845 9.80128 23.5431C9.85989 23.6017 9.89281 23.6812 9.89281 23.7641V37.8219C9.89285 37.8629 9.8848 37.9036 9.86911 37.9416C9.85343 37.9795 9.83042 38.014 9.80139 38.043C9.77237 38.0721 9.73791 38.0951 9.69997 38.1109C9.66204 38.1266 9.62138 38.1347 9.58031 38.1347V38.1347ZM0.9375 37.5097H9.26781V24.0766H0.9375V37.5097Z" fill="#2F3A5A"/>
<path d="M37.4656 17.8H10.726L12.6503 12.555H35.541L37.4656 17.8Z" fill="#8AE0A1"/>
<path d="M33.9782 17.0453H14.2132C14.1697 17.0455 14.1266 17.0366 14.0867 17.0191C14.0468 17.0017 14.0111 16.9761 13.9816 16.9441C13.9522 16.912 13.9298 16.8742 13.9159 16.8329C13.9019 16.7917 13.8968 16.748 13.9007 16.7047C13.523 16.5283 13.1064 16.4519 12.6907 16.4828C12.6394 16.4828 12.5888 16.4702 12.5436 16.446C12.4983 16.4219 12.4597 16.3869 12.4311 16.3443C12.4025 16.3017 12.3849 16.2527 12.3797 16.2016C12.3746 16.1506 12.3821 16.099 12.4016 16.0516L13.3251 13.8066C13.3486 13.7492 13.3887 13.7002 13.4401 13.6657C13.4916 13.6312 13.5522 13.6128 13.6141 13.6128C14.1144 13.6462 14.6149 13.5516 15.0685 13.3378C15.0934 13.2834 15.1335 13.2374 15.1838 13.2051C15.2342 13.1728 15.2927 13.1556 15.3526 13.1556H32.8366C32.8965 13.1556 32.9551 13.1729 33.0054 13.2052C33.0558 13.2376 33.0958 13.2837 33.1207 13.3381C33.5743 13.5516 34.0748 13.6462 34.5751 13.6128C34.637 13.6128 34.6976 13.6312 34.749 13.6657C34.8005 13.7002 34.8406 13.7492 34.8641 13.8066L35.7876 16.0516C35.8071 16.099 35.8146 16.1506 35.8094 16.2016C35.8043 16.2527 35.7866 16.3017 35.7581 16.3443C35.7295 16.3869 35.6909 16.4219 35.6456 16.446C35.6003 16.4702 35.5498 16.4828 35.4985 16.4828C35.0828 16.4519 34.6662 16.5283 34.2885 16.7047C34.2924 16.748 34.2872 16.7917 34.2733 16.8329C34.2593 16.8742 34.237 16.912 34.2075 16.9441C34.1781 16.9761 34.1423 17.0017 34.1025 17.0191C34.0626 17.0366 34.0195 17.0455 33.976 17.0453H33.9782ZM14.4722 16.4203H33.7188C33.7292 16.4016 33.7406 16.3835 33.7529 16.3659C33.9872 16.0359 34.5891 15.9191 35.0413 15.8784L34.3644 14.2328C33.9426 14.2153 33.0519 14.1356 32.6816 13.7803H15.5094C15.1401 14.1356 14.2485 14.2153 13.8266 14.2328L13.1501 15.8788C13.6019 15.9191 14.2041 16.035 14.4382 16.3663C14.4507 16.3836 14.4621 16.4017 14.4726 16.4203H14.4722Z" fill="#2F3A5A"/>
<path d="M37.4656 18.1125H10.726C10.6757 18.1125 10.6261 18.1004 10.5815 18.0771C10.5369 18.0539 10.4986 18.0202 10.4698 17.979C10.441 17.9377 10.4225 17.8902 10.4161 17.8403C10.4096 17.7904 10.4152 17.7397 10.4325 17.6925L12.3572 12.4475C12.3792 12.3874 12.4192 12.3355 12.4717 12.2988C12.5242 12.2622 12.5866 12.2425 12.6506 12.2425H35.5413C35.6053 12.2425 35.6677 12.2621 35.7202 12.2987C35.7727 12.3353 35.8126 12.3871 35.8347 12.4472L37.7594 17.6922C37.7768 17.7394 37.7825 17.7902 37.776 17.8401C37.7695 17.89 37.7511 17.9376 37.7223 17.9789C37.6935 18.0202 37.6552 18.0539 37.6105 18.0771C37.5659 18.1004 37.5163 18.1125 37.466 18.1125H37.4656ZM11.1735 17.4875H37.0172L35.3219 12.8675H12.8688L11.1735 17.4875Z" fill="#2F3A5A"/>
<path d="M24.0956 13.7697C22.3859 13.7697 20.9496 14.2981 20.885 14.9741C20.8178 15.6784 22.254 16.2712 24.0956 16.2712C25.9371 16.2712 27.3734 15.6775 27.3062 14.9741C27.2415 14.2981 25.8053 13.7697 24.0956 13.7697Z" fill="#6FC682"/>
<path d="M24.0956 16.5837C22.6309 16.5837 21.3512 16.2172 20.8349 15.6494C20.7433 15.5576 20.6725 15.4471 20.6274 15.3254C20.5823 15.2037 20.564 15.0738 20.5737 14.9444C20.6674 13.9678 22.4174 13.4572 24.0956 13.4572C25.7737 13.4572 27.524 13.9687 27.6171 14.9444C27.6268 15.0738 27.6085 15.2037 27.5634 15.3254C27.5183 15.447 27.4476 15.5575 27.3559 15.6494C26.8403 16.2169 25.5603 16.5837 24.0956 16.5837ZM24.0956 14.0838C22.3793 14.0838 21.2318 14.6297 21.1962 15.0053C21.1966 15.0479 21.2058 15.0898 21.2233 15.1286C21.2408 15.1674 21.2662 15.2021 21.2978 15.2306C21.6171 15.5822 22.6293 15.9603 24.0959 15.9603C25.5625 15.9603 26.5743 15.5822 26.894 15.2306C26.9255 15.2022 26.9508 15.1675 26.9682 15.1287C26.9857 15.09 26.9949 15.0481 26.9953 15.0056C26.9593 14.6281 25.8125 14.0822 24.0956 14.0822V14.0838Z" fill="#2F3A5A"/>
<path d="M31.0175 14.4869C30.3259 14.4869 29.8025 14.7031 29.8491 14.9741C29.8956 15.245 30.5122 15.4756 31.2241 15.4756C31.9359 15.4756 32.4575 15.2494 32.3897 14.9741C32.3219 14.6988 31.7091 14.4869 31.0175 14.4869Z" fill="#6FC682"/>
<path d="M31.2241 15.7881C30.4763 15.7881 29.6304 15.55 29.541 15.0269C29.5285 14.9498 29.5332 14.8709 29.5548 14.7958C29.5764 14.7208 29.6144 14.6514 29.666 14.5928C29.887 14.3309 30.3919 14.1744 31.0169 14.1744C31.7619 14.1744 32.5691 14.3984 32.6926 14.8991C32.7115 14.9774 32.712 15.0591 32.6941 15.1376C32.6761 15.2162 32.6402 15.2895 32.5891 15.3519C32.3751 15.625 31.8654 15.7881 31.2241 15.7881V15.7881ZM30.2004 14.9541C30.5195 15.106 30.871 15.1778 31.2241 15.1631C31.5031 15.1772 31.7815 15.1251 32.0366 15.0113C31.7189 14.8588 31.3688 14.7862 31.0166 14.7997C30.7362 14.7853 30.4565 14.8382 30.2007 14.9541H30.2004Z" fill="#2F3A5A"/>
<path d="M17.1738 14.4869C16.4822 14.4869 15.8684 14.7031 15.8016 14.9741C15.7347 15.245 16.255 15.4756 16.9672 15.4756C17.6794 15.4756 18.2953 15.2494 18.3422 14.9741C18.3891 14.6988 17.8653 14.4869 17.1738 14.4869Z" fill="#6FC682"/>
<path d="M16.9671 15.7881C16.3259 15.7881 15.8153 15.6253 15.6015 15.3506C15.5504 15.2883 15.5144 15.2149 15.4965 15.1362C15.4785 15.0576 15.4791 14.9759 15.4981 14.8975C15.6231 14.3975 16.4287 14.1728 17.1734 14.1728C17.7984 14.1728 18.3034 14.3291 18.5243 14.5913C18.5759 14.6499 18.6139 14.7192 18.6355 14.7943C18.6571 14.8693 18.6618 14.9482 18.6493 15.0253C18.5625 15.5497 17.715 15.7881 16.9671 15.7881V15.7881ZM16.1609 15.015C16.4147 15.1258 16.6906 15.1765 16.9671 15.1631C17.3179 15.18 17.6671 15.106 17.9809 14.9484C17.7269 14.8371 17.4507 14.7861 17.1737 14.7994C16.8233 14.7845 16.4749 14.8587 16.1609 15.015Z" fill="#2F3A5A"/>
<path d="M34.3268 12.8081C33.9846 12.8081 33.7383 12.9094 33.7768 13.0353C33.8152 13.1613 34.1287 13.2656 34.4758 13.2656C34.823 13.2656 35.0696 13.1622 35.0249 13.0353C34.9802 12.9084 34.669 12.8081 34.3268 12.8081Z" fill="#6FC682"/>
<path d="M13.8769 12.8081C13.5347 12.8081 13.2225 12.9094 13.1791 13.0353C13.1356 13.1613 13.3809 13.2656 13.7281 13.2656C14.0753 13.2656 14.3884 13.1622 14.4269 13.0353C14.4653 12.9084 14.2187 12.8081 13.8769 12.8081Z" fill="#6FC682"/>
<path d="M35.6706 16.9375C35.2834 16.9375 35.0094 17.0672 35.0587 17.2284C35.1081 17.3897 35.4681 17.5241 35.8615 17.5241C36.255 17.5241 36.5281 17.3909 36.4719 17.2284C36.4156 17.0659 36.0578 16.9375 35.6706 16.9375V16.9375Z" fill="#6FC682"/>
<path d="M12.5346 16.9375C12.1475 16.9375 11.789 17.0672 11.7334 17.2284C11.6778 17.3897 11.9506 17.5241 12.344 17.5241C12.7375 17.5241 13.0971 17.3909 13.1468 17.2284C13.1965 17.0659 12.9218 16.9375 12.5346 16.9375Z" fill="#6FC682"/>
<path d="M26.2007 17.8H21.991L22.2941 12.555H25.8975L26.2007 17.8Z" fill="#F0F5F9"/>
<path d="M25.8978 12.555L26.2009 17.8003H21.9906L22.0234 17.2284H24.9897L24.8731 12.555H25.8978Z" fill="#D9E2E9"/>
<path d="M26.2003 18.1125H21.9909C21.9483 18.1126 21.9061 18.1039 21.867 18.0871C21.8278 18.0703 21.7925 18.0456 21.7632 18.0147C21.734 17.9837 21.7114 17.9471 21.6968 17.907C21.6822 17.867 21.6759 17.8244 21.6784 17.7819L21.9815 12.5369C21.9861 12.4572 22.0211 12.3823 22.0792 12.3275C22.1373 12.2728 22.2142 12.2424 22.294 12.2425H25.8974C25.9773 12.2424 26.0541 12.2728 26.1122 12.3275C26.1704 12.3823 26.2053 12.4572 26.2099 12.5369L26.5124 17.7813C26.5149 17.8238 26.5087 17.8664 26.4941 17.9064C26.4795 17.9464 26.4569 17.9831 26.4276 18.014C26.3983 18.045 26.363 18.0697 26.3239 18.0865C26.2847 18.1033 26.2426 18.112 26.1999 18.1119L26.2003 18.1125ZM22.3218 17.4875H25.8693L25.6024 12.8675H22.589L22.3218 17.4875Z" fill="#2F3A5A"/>
<path d="M37.4656 17.8V22.0969L10.726 21.815V17.8H37.4656Z" fill="#8AE0A1"/>
<path d="M37.4656 22.4094H37.4622L10.7225 22.1281C10.6402 22.1272 10.5616 22.0939 10.5038 22.0354C10.4459 21.9769 10.4134 21.8979 10.4135 21.8156V17.8C10.4135 17.7171 10.4464 17.6376 10.505 17.579C10.5636 17.5204 10.6431 17.4875 10.726 17.4875H37.4656C37.5485 17.4875 37.628 17.5204 37.6866 17.579C37.7452 17.6376 37.7781 17.7171 37.7781 17.8V22.0969C37.7781 22.1798 37.7452 22.2592 37.6866 22.3178C37.628 22.3765 37.5485 22.4094 37.4656 22.4094V22.4094ZM11.0385 21.5056L37.1531 21.7809V18.1125H11.0385V21.5056Z" fill="#2F3A5A"/>
<path d="M37.4656 19.1769H10.726C10.6431 19.1769 10.5636 19.144 10.505 19.0853C10.4464 19.0267 10.4135 18.9473 10.4135 18.8644C10.4135 18.7815 10.4464 18.702 10.505 18.6434C10.5636 18.5848 10.6431 18.5519 10.726 18.5519H37.4656C37.5485 18.5519 37.628 18.5848 37.6866 18.6434C37.7452 18.702 37.7781 18.7815 37.7781 18.8644C37.7781 18.9473 37.7452 19.0267 37.6866 19.0853C37.628 19.144 37.5485 19.1769 37.4656 19.1769Z" fill="#2F3A5A"/>
<path d="M37.4656 20.2409H10.726C10.6431 20.2409 10.5636 20.208 10.505 20.1494C10.4464 20.0908 10.4135 20.0113 10.4135 19.9284C10.4135 19.8456 10.4464 19.7661 10.505 19.7075C10.5636 19.6489 10.6431 19.6159 10.726 19.6159H37.4656C37.5485 19.6159 37.628 19.6489 37.6866 19.7075C37.7452 19.7661 37.7781 19.8456 37.7781 19.9284C37.7781 20.0113 37.7452 20.0908 37.6866 20.1494C37.628 20.208 37.5485 20.2409 37.4656 20.2409Z" fill="#2F3A5A"/>
<path d="M37.4656 21.3047H10.726C10.6431 21.3047 10.5636 21.2718 10.505 21.2132C10.4464 21.1546 10.4135 21.0751 10.4135 20.9922C10.4135 20.9093 10.4464 20.8298 10.505 20.7712C10.5636 20.7126 10.6431 20.6797 10.726 20.6797H37.4656C37.5485 20.6797 37.628 20.7126 37.6866 20.7712C37.7452 20.8298 37.7781 20.9093 37.7781 20.9922C37.7781 21.0751 37.7452 21.1546 37.6866 21.2132C37.628 21.2718 37.5485 21.3047 37.4656 21.3047Z" fill="#2F3A5A"/>
<path d="M22.009 17.5253H26.1825V21.9563H22.009V17.5253Z" fill="#F0F5F9"/>
<path d="M26.1825 17.5247V21.9556H22.01V20.9919H24.9606V17.5247H26.1825Z" fill="#D9E2E9"/>
<path d="M26.1825 22.2684H22.009C21.9262 22.2684 21.8467 22.2355 21.7881 22.1769C21.7295 22.1183 21.6965 22.0388 21.6965 21.9559V17.5253C21.6965 17.4424 21.7295 17.3629 21.7881 17.3043C21.8467 17.2457 21.9262 17.2128 22.009 17.2128H26.1825C26.2653 17.2128 26.3448 17.2457 26.4034 17.3043C26.462 17.3629 26.495 17.4424 26.495 17.5253V21.9559C26.495 22.0388 26.462 22.1183 26.4034 22.1769C26.3448 22.2355 26.2653 22.2684 26.1825 22.2684ZM22.3215 21.6434H25.87V17.8378H22.3215V21.6434Z" fill="#2F3A5A"/>
</g>
<defs>
<clipPath id="clip0">
<rect width="40" height="40" fill="white"/>
</clipPath>
</defs>
</svg>
