<svg width="37" height="37" viewBox="0 0 37 37" fill="none" xmlns="http://www.w3.org/2000/svg">
<path d="M25.7266 23.125V33.5312H7.22656V23.125H25.7266Z" fill="#46508C"/>
<path d="M10.6953 31.2188H7.22656C6.58795 31.2188 6.07031 31.7364 6.07031 32.375V33.5312H11.8516V32.375C11.8516 31.7364 11.3339 31.2188 10.6953 31.2188Z" fill="#73CDDC"/>
<path d="M18.2109 31.2188H14.7422C14.1036 31.2188 13.5859 31.7364 13.5859 32.375V33.5312H19.3672V32.375C19.3672 31.7364 18.8495 31.2188 18.2109 31.2188Z" fill="#73CDDC"/>
<path d="M25.7266 31.2188H22.2578C21.6192 31.2188 21.1016 31.7364 21.1016 32.375V33.5312H26.8828V32.375C26.8828 31.7364 26.3652 31.2188 25.7266 31.2188Z" fill="#73CDDC"/>
<path d="M26.8828 33.5312H6.07031V34.6875C6.07031 35.3261 6.58795 35.8438 7.22656 35.8438H25.7266C26.3652 35.8438 26.8828 35.3261 26.8828 34.6875V33.5312Z" fill="#5F78BE"/>
<path d="M10.6953 25.4375V31.2188H7.22656V25.4375H10.6953Z" fill="#5F78BE"/>
<path d="M18.2109 25.4375V31.2188H14.7422V25.4375H18.2109Z" fill="#5F78BE"/>
<path d="M25.7266 25.4375V31.2188H22.2578V25.4375H25.7266Z" fill="#5F78BE"/>
<path d="M16.4766 13.875C15.726 13.875 14.9958 14.1185 14.3953 14.5688L6.53281 20.4656C6.24165 20.684 6.07031 21.0267 6.07031 21.3906V23.125H26.8828V21.3906C26.8828 21.0267 26.7115 20.684 26.4203 20.4656L18.5578 14.5688C17.9574 14.1185 17.2271 13.875 16.4766 13.875Z" fill="#73CDDC"/>
<path d="M15.436 15.9563L9.88595 20.1187C9.7889 20.1915 9.73181 20.3058 9.73181 20.4271C9.73181 20.6399 9.90438 20.8125 10.1172 20.8125H22.8359C23.0488 20.8125 23.2213 20.6399 23.2213 20.4271C23.2213 20.3058 23.1643 20.1916 23.0672 20.1187L17.5172 15.9563C17.217 15.7311 16.8519 15.6094 16.4766 15.6094C16.1013 15.6094 15.7361 15.7311 15.436 15.9563V15.9563Z" fill="#5F78BE"/>
<path d="M10.6953 25.4375H7.22656C6.58795 25.4375 6.07031 24.9199 6.07031 24.2812V23.125H11.8516V24.2812C11.8516 24.9199 11.3339 25.4375 10.6953 25.4375Z" fill="#5F78BE"/>
<path d="M18.2109 25.4375H14.7422C14.1036 25.4375 13.5859 24.9199 13.5859 24.2812V23.125H19.3672V24.2812C19.3672 24.9199 18.8495 25.4375 18.2109 25.4375Z" fill="#5F78BE"/>
<path d="M25.7266 25.4375H22.2578C21.6192 25.4375 21.1016 24.9199 21.1016 24.2812V23.125H26.8828V24.2812C26.8828 24.9199 26.3652 25.4375 25.7266 25.4375Z" fill="#5F78BE"/>
<path d="M8.96094 31.2188H7.22656V26.5938H7.80469C8.4433 26.5938 8.96094 27.1114 8.96094 27.75V31.2188Z" fill="#73CDDC"/>
<path d="M16.4766 31.2188H14.7422V26.5938H15.3203C15.9589 26.5938 16.4766 27.1114 16.4766 27.75V31.2188Z" fill="#73CDDC"/>
<path d="M23.9922 31.2188H22.2578V26.5938H22.8359C23.4745 26.5938 23.9922 27.1114 23.9922 27.75V31.2188Z" fill="#73CDDC"/>
<path d="M8.57049 15.0312H7.80469V9.25C7.80469 8.93073 7.54583 8.67188 7.22656 8.67188C6.90729 8.67188 6.64844 8.93073 6.64844 9.25V15.0312H5.88264C5.667 15.0312 5.49219 15.2061 5.49219 15.4217C5.49219 15.5403 5.5461 15.6525 5.63874 15.7266L6.71181 16.585C6.85786 16.702 7.03947 16.7656 7.22656 16.7656C7.41366 16.7656 7.59526 16.702 7.74138 16.585L8.81446 15.7266C8.9071 15.6525 8.96101 15.5403 8.96101 15.4217C8.96094 15.2061 8.78613 15.0312 8.57049 15.0312V15.0312Z" fill="#46508C"/>
<path d="M28.6172 2.3125H18.0126C17.3993 2.3125 16.8111 2.55611 16.3774 2.98985L13.5859 5.78125V12.7188H26.3047C27.5818 12.7188 28.6172 11.6834 28.6172 10.4062H29.7734V2.3125H28.6172Z" fill="#F0915A"/>
<path d="M16.4766 14.4531C19.9887 14.4531 22.8359 11.6059 22.8359 8.09375C22.8359 4.58156 19.9887 1.73438 16.4766 1.73438C12.9644 1.73438 10.1172 4.58156 10.1172 8.09375C10.1172 11.6059 12.9644 14.4531 16.4766 14.4531Z" fill="#FAA51E"/>
<path d="M16.4766 2.3125C19.6643 2.3125 22.2578 4.90597 22.2578 8.09375C22.2578 11.2815 19.6643 13.875 16.4766 13.875C13.2888 13.875 10.6953 11.2815 10.6953 8.09375C10.6953 4.90597 13.2888 2.3125 16.4766 2.3125ZM16.4766 1.15625C12.6451 1.15625 9.53906 4.2623 9.53906 8.09375C9.53906 11.9252 12.6451 15.0312 16.4766 15.0312C20.308 15.0312 23.4141 11.9252 23.4141 8.09375C23.4141 4.2623 20.308 1.15625 16.4766 1.15625Z" fill="#F06423"/>
<path d="M18.211 7.51562C18.5303 7.51562 18.7891 7.25677 18.7891 6.9375V6.54698C18.7891 5.55051 18.0268 4.72892 17.0548 4.63425V4.04688C17.0548 3.72761 16.7959 3.46875 16.4766 3.46875C16.1574 3.46875 15.8985 3.72761 15.8985 4.04688V4.63425C14.9265 4.72892 14.1641 5.55051 14.1641 6.54698C14.1641 7.37557 14.6923 8.10835 15.4784 8.37031L17.1092 8.91396C17.4224 9.01839 17.6329 9.31034 17.6329 9.64045C17.6329 10.0627 17.2893 10.4062 16.8671 10.4062H16.0861C15.6639 10.4062 15.3203 10.0627 15.3203 9.64045V9.25C15.3203 8.93073 15.0615 8.67188 14.7422 8.67188C14.4229 8.67188 14.1641 8.93073 14.1641 9.25V9.64052C14.1641 10.637 14.9264 11.4586 15.8984 11.5532V12.1406C15.8984 12.4599 16.1573 12.7188 16.4766 12.7188C16.7958 12.7188 17.0547 12.4599 17.0547 12.1406V11.5532C18.0267 11.4586 18.7891 10.637 18.7891 9.64052C18.7891 8.81193 18.2609 8.07915 17.4748 7.81719L15.8439 7.27354C15.5308 7.16904 15.3204 6.87716 15.3204 6.54698C15.3204 6.12473 15.6639 5.78125 16.0862 5.78125H16.8672C17.2893 5.78125 17.6329 6.12473 17.6329 6.54698V6.9375C17.6329 7.25677 17.8917 7.51562 18.211 7.51562V7.51562Z" fill="#F06423"/>
<path d="M29.7734 2.3125V10.4062C29.7734 11.0449 30.2911 11.5625 30.9297 11.5625H31.5078V1.15625H30.9297C30.2911 1.15625 29.7734 1.67389 29.7734 2.3125Z" fill="#5F78BE"/>
<path d="M29.7734 2.3125V6.35938H31.5078V1.15625H30.9297C30.2911 1.15625 29.7734 1.67389 29.7734 2.3125Z" fill="#46508C"/>
<path d="M20.763 2.65114L17.8723 5.54176C17.4208 5.99328 17.4208 6.7254 17.8723 7.17692L17.9248 7.22938C18.8279 8.13248 20.2921 8.13248 21.1952 7.22938L22.0651 6.35938H24.5703C26.8054 6.35938 28.6172 4.54753 28.6172 2.3125H21.5805C21.2739 2.3125 20.9798 2.43434 20.763 2.65114Z" fill="#FAB991"/>
<path d="M18.0182 5.39586L18.1642 5.54183C18.6157 5.99335 19.3478 5.99335 19.7993 5.54183L19.9219 5.41927C20.1476 5.19351 20.1476 4.82742 19.9219 4.60166L19.3672 4.04688L18.0182 5.39586Z" fill="#F0915A"/>
<path d="M27.0705 15.0312H26.3047V9.25C26.3047 8.93073 26.0458 8.67188 25.7266 8.67188C25.4073 8.67188 25.1484 8.93073 25.1484 9.25V15.0312H24.3826C24.167 15.0312 23.9922 15.2061 23.9922 15.4217C23.9922 15.5403 24.0461 15.6525 24.1387 15.7266L25.2118 16.585C25.3579 16.7019 25.5395 16.7656 25.7266 16.7656C25.9138 16.7656 26.0953 16.702 26.2415 16.585L27.3145 15.7266C27.4072 15.6525 27.4611 15.5403 27.4611 15.4217C27.4609 15.2061 27.2861 15.0312 27.0705 15.0312V15.0312Z" fill="#46508C"/>
</svg>
