<svg width="54" height="60" viewBox="0 0 54 60" fill="none" xmlns="http://www.w3.org/2000/svg">
<path d="M38.9689 6H17.0311C12.5956 6 9 9.59563 9 14.0311V35.9689C9 40.4044 12.5956 44.0001 17.0311 44.0001H38.9689C43.4044 44.0001 47 40.4044 47 35.9689V14.0311C47 9.59563 43.4044 6 38.9689 6Z" fill="black"/>
<path d="M28.0012 16.0974C25.7207 16.0974 23.4385 16.9654 21.7019 18.7019C18.2288 22.175 18.2288 27.8251 21.7019 31.2982C25.175 34.7713 30.8251 34.7713 34.2982 31.2982C37.7713 27.8251 37.7713 22.175 34.2982 18.7019C32.5616 16.9654 30.2818 16.0974 28.0012 16.0974ZM28.0012 17.278C29.9754 17.278 31.9489 18.032 33.4586 19.5417C36.4779 22.561 36.4779 27.4393 33.4586 30.4586C30.4393 33.478 25.5608 33.478 22.5415 30.4586C19.5222 27.4393 19.5222 22.561 22.5415 19.5417C24.0512 18.032 26.0271 17.278 28.0012 17.278ZM31.5173 22.6241C31.4041 22.6344 31.2962 22.6771 31.2065 22.747L26.8694 26.001L24.8585 23.99C24.8037 23.9333 24.7382 23.8881 24.6658 23.8569C24.5933 23.8258 24.5154 23.8094 24.4365 23.8087C24.3576 23.808 24.2794 23.8229 24.2064 23.8527C24.1334 23.8826 24.0671 23.9267 24.0113 23.9825C23.9556 24.0382 23.9115 24.1046 23.8816 24.1776C23.8518 24.2506 23.8367 24.3289 23.8375 24.4078C23.8382 24.4866 23.8546 24.5645 23.8857 24.637C23.9169 24.7094 23.9622 24.775 24.0189 24.8297L26.3939 27.2047C26.4948 27.3055 26.6286 27.3666 26.7709 27.3768C26.9131 27.3871 27.0543 27.3458 27.1686 27.2606L31.9186 23.6981C32.0193 23.6247 32.0945 23.5215 32.1333 23.4031C32.1722 23.2846 32.1728 23.157 32.1351 23.0382C32.0974 22.9194 32.0233 22.8155 31.9232 22.7412C31.8231 22.6669 31.7022 22.626 31.5776 22.6242C31.5575 22.6232 31.5374 22.6232 31.5173 22.6242V22.6241Z" fill="white"/>
</svg>
