<svg xmlns="http://www.w3.org/2000/svg" width="26" height="21" viewBox="0 0 26 21"><g><g><g><g><g><path fill="#516cd3" d="M3.844 16.997a11.054 11.054 0 0 1-2.362-6.87c0-2.515.817-4.89 2.362-6.868a.741.741 0 0 0-1.167-.913A12.523 12.523 0 0 0 0 10.128c0 2.85.926 5.54 2.677 7.782a.741.741 0 0 0 1.167-.913z"/></g></g></g><g><g><g><path fill="#516cd3" d="M22.618 2.346a.741.741 0 1 0-1.168.913 11.054 11.054 0 0 1 2.363 6.869c0 2.516-.817 4.891-2.362 6.869a.741.741 0 0 0 1.167.913 12.523 12.523 0 0 0 2.677-7.782c0-2.85-.926-5.541-2.677-7.782z"/></g></g></g><g><g><g><path fill="#516cd3" d="M12.647 18.774c-4.767 0-8.645-3.879-8.645-8.646 0-4.767 3.878-8.646 8.645-8.646 4.768 0 8.646 3.879 8.646 8.646 0 4.767-3.878 8.646-8.646 8.646zm0-18.774C7.063 0 2.52 4.543 2.52 10.128c0 5.584 4.543 10.128 10.127 10.128 5.585 0 10.128-4.544 10.128-10.128C22.775 4.543 18.232 0 12.647 0z"/></g></g></g><g><g><g><path fill="#516cd3" d="M13.87 8.905a2.72 2.72 0 0 0-3.843 0l-2.096 2.096a2.72 2.72 0 0 0 0 3.843 2.716 2.716 0 0 0 3.843 0l.699-.699a.741.741 0 1 0-1.048-1.048l-.699.699a1.237 1.237 0 0 1-1.747 0 1.236 1.236 0 0 1 0-1.747l2.096-2.096a1.237 1.237 0 0 1 1.747 0 .741.741 0 0 0 1.048-1.048z"/></g></g></g><g><g><g><path fill="#516cd3" d="M17.364 5.412a2.716 2.716 0 0 0-3.843 0l-.699.698a.741.741 0 0 0 1.048 1.048l.699-.698a1.237 1.237 0 0 1 1.747 0 1.237 1.237 0 0 1 0 1.746l-2.097 2.097a1.237 1.237 0 0 1-1.746 0 .741.741 0 0 0-1.048 1.048 2.72 2.72 0 0 0 3.842 0l2.097-2.097a2.72 2.72 0 0 0 0-3.842z"/></g></g></g></g></g></svg>