<svg width="67" height="71" viewBox="0 0 67 71" fill="none" xmlns="http://www.w3.org/2000/svg">
<path d="M46.3125 26.6977L36.3059 36.6553L34.6381 41.6586L39.6414 39.9908L49.6481 29.9841L46.3125 26.6977Z" fill="#F9F09F"/>
<path d="M46.2942 26.6787L48.3926 24.5804C48.7625 24.2105 49.3581 24.2105 49.728 24.5804L51.7224 26.5747C52.0923 26.9446 52.0923 27.5402 51.7224 27.9102L49.624 30.0085" fill="#F9F09F"/>
<path d="M44.7802 32.4195H32.3641H44.7802ZM44.7802 37.3859H32.3641Z" fill="#EDD70E"/>
<path d="M38.9433 15L45.6232 21.7514M46.4207 46.616C39.6947 46.6156 29.726 46.6167 23 46.6167C23 36.7592 23 25.2299 23 15.3727H38.6591L38.6479 22.065H46.4201L46.4207 46.616Z" stroke="#EDD70E"/>
<path d="M46.3125 26.6977L36.3059 36.6553L34.6381 41.6586L39.6414 39.9908L49.6481 29.9841L46.3125 26.6977Z" stroke="#EDD70E"/>
<path d="M46.2942 26.6787L48.3926 24.5804C48.7625 24.2105 49.3581 24.2105 49.728 24.5804L51.7224 26.5747C52.0923 26.9446 52.0923 27.5402 51.7224 27.9102L49.624 30.0085" stroke="#EDD70E"/>
<path d="M26.3353 42.1566H30.8113M36.4804 36.1755L40.0704 39.7656L36.4804 36.1755ZM45.3049 46.5504V38.809V46.5504ZM26.3353 28.7663H39.7256H26.3353ZM26.3353 33.2297H35.2622H26.3353ZM26.3353 37.6932H33.0305H26.3353Z" stroke="#EDD70E"/>
</svg>
