<svg width="35" height="34" viewBox="0 0 35 34" fill="none" xmlns="http://www.w3.org/2000/svg">
<path fill-rule="evenodd" clip-rule="evenodd" d="M30.0436 14.394C30.0436 14.0524 30.3092 13.7868 30.6508 13.7868C30.9923 13.7868 31.258 14.0524 31.258 14.394V14.9632C31.258 15.3048 30.9923 15.5704 30.6508 15.5704C30.3092 15.5704 30.0436 15.3048 30.0436 14.9632V14.394ZM6.51543 18.4545C6.43953 18.4924 6.32569 18.5304 6.21184 18.5304C6.0221 18.5304 5.7944 18.4165 5.64261 18.2648C5.49082 17.9612 5.56671 17.6196 5.8703 17.4299C10.6898 14.5458 17.1411 10.0299 21.6949 4.14785L20.6323 3.38888C20.2528 3.16118 20.2908 2.59195 20.7082 2.40221L24.0857 0.808367C24.5031 0.618623 24.9585 0.922213 24.9205 1.3776L24.6169 5.09657C24.579 5.514 24.0857 5.77964 23.7062 5.514L22.7195 4.83092C18.0898 10.8648 11.4488 15.5324 6.51543 18.4545ZM3.48842 20.1477C3.40825 20.1764 3.34193 20.2001 3.25184 20.2001C3.02415 20.2001 2.83441 20.0863 2.68262 19.8965C2.53082 19.593 2.64467 19.2135 2.94826 19.0617C3.20255 18.9345 3.46868 18.7837 3.75325 18.6224C3.97828 18.4949 4.21484 18.3609 4.4662 18.2268C4.76979 18.075 5.14928 18.1509 5.30107 18.4545C5.45287 18.7581 5.37697 19.1376 5.07338 19.2894C4.5421 19.593 4.01082 19.8965 3.55543 20.1242C3.53167 20.1322 3.50956 20.1401 3.48842 20.1477ZM1.43031 21.2247C1.35441 21.2627 1.24057 21.2627 1.16467 21.2627C0.936976 21.2627 0.709284 21.1109 0.595438 20.8832C0.443644 20.5796 0.595438 20.2381 0.899028 20.0863C0.899028 20.0863 1.05082 20.0483 1.31646 19.8965C1.62005 19.7447 1.99954 19.8586 2.15133 20.1622C2.30313 20.4658 2.18928 20.8453 1.88569 20.9971L1.43031 21.2247ZM33.5728 32.6852H34.1041C34.4456 32.6852 34.7113 32.9509 34.7113 33.2924C34.7113 33.634 34.4456 33.8996 34.1041 33.8996H33.5728C33.2313 33.8996 32.9656 33.634 32.9656 33.2924C32.9656 32.9509 33.2313 32.6852 33.5728 32.6852ZM31.2579 32.6852H31.8651C32.2067 32.6852 32.4723 32.9509 32.4723 33.2924C32.4723 33.634 32.2067 33.8996 31.8651 33.8996H1.16465C0.823116 33.8996 0.557475 33.634 0.557475 33.2924C0.557475 32.9509 0.823116 32.6852 1.16465 32.6852H4.0108V23.6535C4.0108 23.3119 4.27644 23.0463 4.61798 23.0463H9.43746C9.779 23.0463 10.0446 23.3119 10.0446 23.6535V32.6852H11.0693V18.7581C11.0693 18.4165 11.3349 18.1509 11.6764 18.1509H16.4959C16.8375 18.1509 17.1031 18.4165 17.1031 18.7581V32.6852H18.1277V13.2555C18.1277 12.914 18.3933 12.6484 18.7349 12.6484H23.5923C23.9338 12.6484 24.1995 12.914 24.1995 13.2555V32.6852H25.2241V7.79092C25.2241 7.44938 25.4897 7.18374 25.8313 7.18374H30.6508C30.9923 7.18374 31.2579 7.44938 31.2579 7.79092V12.6104C31.2579 12.9519 30.9923 13.2176 30.6508 13.2176C30.3092 13.2176 30.0436 12.9519 30.0436 12.6104V8.3981H26.4385V32.6852H30.0436V16.5571C30.0436 16.2155 30.3092 15.9499 30.6508 15.9499C30.9923 15.9499 31.2579 16.2155 31.2579 16.5571V32.6852ZM22.9472 13.8627H19.3421V32.6852H22.9472V13.8627ZM15.8887 19.3653H12.2836V32.6852H15.8887V19.3653ZM8.83028 24.2606H5.22516V32.6852H8.83028V24.2606Z" fill="#EDD70E"/>
</svg>
