<svg xmlns="http://www.w3.org/2000/svg" width="29" height="33" viewBox="0 0 29 33"><defs><linearGradient id="auk9a" x1="4.59" x2="4.59" y1="25" y2="32.85" gradientUnits="userSpaceOnUse"><stop offset="0" stop-color="#ff5d0e"/><stop offset="1" stop-color="#ffad84"/></linearGradient><linearGradient id="auk9b" x1="24.21" x2="24.21" y1="25" y2="32.85" gradientUnits="userSpaceOnUse"><stop offset="0" stop-color="#ff5d0e"/><stop offset="1" stop-color="#ffad84"/></linearGradient><linearGradient id="auk9c" x1="14.4" x2="14.4" y1="25" y2="32.85" gradientUnits="userSpaceOnUse"><stop offset="0" stop-color="#ff5d0e"/><stop offset="1" stop-color="#ffad84"/></linearGradient><mask id="auk9e" width="2" height="2" x="-1" y="-1"><path fill="#fff" d="M8.35 2.47h12.09v17.32H8.35z"/><path d="M18.816 16.8c0 .753-.612 1.366-1.366 1.366h-2.238V15.83l2.445-2.445a4.402 4.402 0 0 1 1.16 2.98v.436zm-8.837-.436c0-1.147.44-2.194 1.159-2.98l2.445 2.445v2.337h-2.238A1.368 1.368 0 0 1 9.979 16.8zm6.362-3.967l-1.944 1.943-1.943-1.943a4.392 4.392 0 0 1 1.943-.452c.698 0 1.357.163 1.944.452zm-5.054-5.191a3.114 3.114 0 0 1 3.11-3.11 3.114 3.114 0 0 1 3.111 3.11 3.114 3.114 0 0 1-3.11 3.11 3.114 3.114 0 0 1-3.111-3.11zm5.928 3.808a4.735 4.735 0 0 0 1.922-3.808 4.745 4.745 0 0 0-4.74-4.74 4.745 4.745 0 0 0-4.739 4.74c0 1.559.757 2.944 1.922 3.808a6.053 6.053 0 0 0-3.23 5.35v.436a2.998 2.998 0 0 0 2.995 2.995h6.105a2.998 2.998 0 0 0 2.995-2.995v-.436a6.053 6.053 0 0 0-3.23-5.35z"/></mask><filter id="auk9d" width="44.09" height="52.32" x="-7.65" y="-13.53" filterUnits="userSpaceOnUse"><feOffset dy="3" in="SourceGraphic" result="FeOffset2016Out"/><feGaussianBlur in="FeOffset2016Out" result="FeGaussianBlur2017Out" stdDeviation="2.4 2.4"/></filter><linearGradient id="auk9f" x1="14.4" x2="14.4" y1="2.47" y2="19.79" gradientUnits="userSpaceOnUse"><stop offset="0" stop-color="#5a79f3"/><stop offset="1" stop-color="#86a0ff"/></linearGradient></defs><g><g><g><path fill="url(#auk9a)" d="M5.652 29.202a.814.814 0 0 0-.234.72l.107.625-.561-.295a.814.814 0 0 0-.758 0l-.56.295.106-.624a.814.814 0 0 0-.234-.721l-.454-.443.628-.09a.814.814 0 0 0 .613-.446l.28-.569.281.569c.119.24.348.407.613.445l.627.091zm1.443.867l1.33-1.295a.814.814 0 0 0-.452-1.39l-1.836-.266-.822-1.664a.814.814 0 0 0-1.46 0l-.821 1.664-1.837.267a.814.814 0 0 0-.451 1.389l1.329 1.295-.314 1.83a.814.814 0 0 0 1.182.857l1.642-.863 1.643.863c.119.063.249.094.379.094h.002a.814.814 0 0 0 .793-.996z"/></g><g><path fill="url(#auk9b)" d="M25.277 29.202a.814.814 0 0 0-.234.72l.107.625-.561-.295a.815.815 0 0 0-.758 0l-.561.295.107-.624a.814.814 0 0 0-.234-.721l-.454-.443.627-.09a.814.814 0 0 0 .613-.446l.281-.569.28.569c.12.24.348.407.614.445l.627.091zm2.978-1.263a.814.814 0 0 0-.657-.554l-1.837-.267-.821-1.664a.814.814 0 0 0-1.46 0l-.822 1.664-1.836.267a.814.814 0 0 0-.451 1.389l1.329 1.295-.314 1.829a.814.814 0 0 0 1.181.858l1.643-.863 1.643.863c.119.063.249.094.378.094h.003a.814.814 0 0 0 .792-.996l-.306-1.785 1.329-1.295a.814.814 0 0 0 .206-.835z"/></g><g><path fill="url(#auk9c)" d="M13.504 28.668a.814.814 0 0 0 .613-.445l.28-.569.281.569c.119.24.348.407.613.445l.627.091-.454.443a.815.815 0 0 0-.234.72l.107.625-.56-.295a.814.814 0 0 0-.758 0l-.561.295.107-.624a.814.814 0 0 0-.234-.721l-.454-.443zm-1.617 1.401l-.314 1.83a.814.814 0 0 0 1.182.858l1.642-.864 1.643.864c.12.062.25.093.379.093h.002a.814.814 0 0 0 .793-.996l-.306-1.785 1.329-1.295a.814.814 0 0 0-.452-1.39l-1.836-.266-.821-1.664a.814.814 0 0 0-1.46 0l-.822 1.664-1.837.267a.814.814 0 0 0-.45 1.389z"/></g><g><g filter="url(#auk9d)"><path fill="none" d="M18.816 16.8c0 .753-.612 1.366-1.366 1.366h-2.238V15.83l2.445-2.445a4.402 4.402 0 0 1 1.16 2.98v.436zm-8.837-.436c0-1.147.44-2.194 1.159-2.98l2.445 2.445v2.337h-2.238A1.368 1.368 0 0 1 9.979 16.8zm6.362-3.967l-1.944 1.943-1.943-1.943a4.392 4.392 0 0 1 1.943-.452c.698 0 1.357.163 1.944.452zm-5.054-5.191a3.114 3.114 0 0 1 3.11-3.11 3.114 3.114 0 0 1 3.111 3.11 3.114 3.114 0 0 1-3.11 3.11 3.114 3.114 0 0 1-3.111-3.11zm5.928 3.808a4.735 4.735 0 0 0 1.922-3.808 4.745 4.745 0 0 0-4.74-4.74 4.745 4.745 0 0 0-4.739 4.74c0 1.559.757 2.944 1.922 3.808a6.053 6.053 0 0 0-3.23 5.35v.436a2.998 2.998 0 0 0 2.995 2.995h6.105a2.998 2.998 0 0 0 2.995-2.995v-.436a6.053 6.053 0 0 0-3.23-5.35z" mask="url(&quot;#auk9e&quot;)"/><path fill="#849efe" fill-opacity=".33" d="M18.816 16.8c0 .753-.612 1.366-1.366 1.366h-2.238V15.83l2.445-2.445a4.402 4.402 0 0 1 1.16 2.98v.436zm-8.837-.436c0-1.147.44-2.194 1.159-2.98l2.445 2.445v2.337h-2.238A1.368 1.368 0 0 1 9.979 16.8zm6.362-3.967l-1.944 1.943-1.943-1.943a4.392 4.392 0 0 1 1.943-.452c.698 0 1.357.163 1.944.452zm-5.054-5.191a3.114 3.114 0 0 1 3.11-3.11 3.114 3.114 0 0 1 3.111 3.11 3.114 3.114 0 0 1-3.11 3.11 3.114 3.114 0 0 1-3.111-3.11zm5.928 3.808a4.735 4.735 0 0 0 1.922-3.808 4.745 4.745 0 0 0-4.74-4.74 4.745 4.745 0 0 0-4.739 4.74c0 1.559.757 2.944 1.922 3.808a6.053 6.053 0 0 0-3.23 5.35v.436a2.998 2.998 0 0 0 2.995 2.995h6.105a2.998 2.998 0 0 0 2.995-2.995v-.436a6.053 6.053 0 0 0-3.23-5.35z"/></g><path fill="url(#auk9f)" d="M18.816 16.8c0 .753-.612 1.366-1.366 1.366h-2.238V15.83l2.445-2.445a4.402 4.402 0 0 1 1.16 2.98v.436zm-8.837-.436c0-1.147.44-2.194 1.159-2.98l2.445 2.445v2.337h-2.238A1.368 1.368 0 0 1 9.979 16.8zm6.362-3.967l-1.944 1.943-1.943-1.943a4.392 4.392 0 0 1 1.943-.452c.698 0 1.357.163 1.944.452zm-5.054-5.191a3.114 3.114 0 0 1 3.11-3.11 3.114 3.114 0 0 1 3.111 3.11 3.114 3.114 0 0 1-3.11 3.11 3.114 3.114 0 0 1-3.111-3.11zm5.928 3.808a4.735 4.735 0 0 0 1.922-3.808 4.745 4.745 0 0 0-4.74-4.74 4.745 4.745 0 0 0-4.739 4.74c0 1.559.757 2.944 1.922 3.808a6.053 6.053 0 0 0-3.23 5.35v.436a2.998 2.998 0 0 0 2.995 2.995h6.105a2.998 2.998 0 0 0 2.995-2.995v-.436a6.053 6.053 0 0 0-3.23-5.35z"/></g></g></g></svg>