<svg xmlns="http://www.w3.org/2000/svg" width="30" height="20" viewBox="0 0 30 20"><g><g><g><g><g><path fill="#516cd3" d="M20.313 17.678a9.708 9.708 0 0 0 4.163-7.966 9.708 9.708 0 0 0-4.163-7.966c4.17.258 7.484 3.732 7.484 7.966s-3.314 7.708-7.484 7.966zm-5.052 0a9.708 9.708 0 0 0 4.163-7.966 9.708 9.708 0 0 0-4.163-7.966c4.17.258 7.485 3.732 7.485 7.966s-3.314 7.708-7.485 7.966zm-5.549.016c-4.401 0-7.982-3.58-7.982-7.982 0-4.401 3.58-7.982 7.982-7.982 4.401 0 7.982 3.58 7.982 7.982 0 4.401-3.58 7.982-7.982 7.982zM19.815 0a9.69 9.69 0 0 0-2.525.334 9.69 9.69 0 0 0-5.052 0A9.69 9.69 0 0 0 9.712 0C4.357 0 0 4.357 0 9.712c0 5.355 4.357 9.712 9.712 9.712a9.69 9.69 0 0 0 2.526-.334 9.69 9.69 0 0 0 5.051 0 9.69 9.69 0 0 0 2.526.334c5.356 0 9.712-4.357 9.712-9.712C29.527 4.357 25.171 0 19.815 0z"/></g></g></g></g></g></svg>