<svg xmlns="http://www.w3.org/2000/svg" width="6" height="46" viewBox="0 0 6 46"><defs><clipPath id="ovqua"><path fill="#fff" d="M0 3a3 3 0 1 1 6 0 3 3 0 0 1-6 0z"/></clipPath><clipPath id="ovqub"><path fill="#fff" d="M0 43a3 3 0 1 1 6 0 3 3 0 0 1-6 0z"/></clipPath></defs><g><g><path fill="#fff" d="M0 3a3 3 0 1 1 6 0 3 3 0 0 1-6 0z"/><path fill="none" stroke="#d9deea" stroke-miterlimit="20" stroke-width="2" d="M0 3a3 3 0 1 1 6 0 3 3 0 0 1-6 0z" clip-path="url(&quot;#ovqua&quot;)"/></g><g><path fill="#fff" d="M0 43a3 3 0 1 1 6 0 3 3 0 0 1-6 0z"/><path fill="none" stroke="#5373f1" stroke-miterlimit="20" stroke-width="4" d="M0 43a3 3 0 1 1 6 0 3 3 0 0 1-6 0z" clip-path="url(&quot;#ovqub&quot;)"/></g></g></svg>