<svg xmlns="http://www.w3.org/2000/svg" width="12.244" height="19" viewBox="0 0 12.244 19"><g transform="translate(-381.842 -253.308)"><g transform="translate(381.842 253.308)"><g transform="translate(0 0)"><path d="M-11,135.308l-3.055,5.429h-6.105l3.053-5.429H-11" transform="translate(20.158 -135.308)" fill="#7f9afd" opacity="0.45"/><path d="M113.509,140.737h6.107l-3.053-5.429h-6.107Z" transform="translate(-107.403 -135.308)" fill="#7f9afd" opacity="0.6"/><path d="M-17.105,146.164l3.053-5.427-3.053-5.429-3.053,5.429Z" transform="translate(20.158 -135.308)" fill="#7f9afd" opacity="0.8"/><path d="M111.721,721.4l3.055-5.429h6.107l-3.055,5.429h-6.107" transform="translate(-108.639 -702.401)" fill="#7f9afd" opacity="0.45"/><path d="M-12.786,715.973h-6.107l3.053,5.429h6.107Z" transform="translate(18.923 -702.402)" fill="#7f9afd" opacity="0.6"/><path d="M245.477,483.761l-3.053,5.427,3.053,5.429,3.055-5.429Z" transform="translate(-236.287 -475.617)" fill="#7f9afd" opacity="0.8"/></g></g></g></svg>