<svg xmlns="http://www.w3.org/2000/svg" xmlns:xlink="http://www.w3.org/1999/xlink" width="19" height="19" viewBox="0 0 19 19"><defs><linearGradient id="a" x1="0.205" y1="1.334" x2="0.905" y2="-0.596" gradientUnits="objectBoundingBox"><stop offset="0" stop-color="#3d8dea"/><stop offset="1" stop-color="#89d1ff"/></linearGradient><clipPath id="b"><rect width="19" height="19" transform="translate(0 0)" stroke="#707070" stroke-width="1" fill="url(#a)"/></clipPath><filter id="d" x="-8.214" y="-5.214" width="35.295" height="35.295" filterUnits="userSpaceOnUse"><feOffset dy="3" input="SourceAlpha"/><feGaussianBlur stdDeviation="3" result="e"/><feFlood flood-opacity="0.161"/><feComposite operator="in" in2="e"/><feComposite in="SourceGraphic"/></filter></defs><g transform="translate(-5 -76)"><g transform="translate(5 76)" clip-path="url(#b)"><g transform="translate(0 0)"><g transform="matrix(1, 0, 0, 1, 0, 0)" filter="url(#d)"><path d="M12.814,4.167a8.647,8.647,0,1,0,8.647,8.647A8.647,8.647,0,0,0,12.814,4.167Zm3.117,6.23-2.252,6.757a.554.554,0,0,1-1.049,0l-1.038-3.117L8.475,13a.554.554,0,0,1,0-1.049L15.231,9.7A.554.554,0,0,1,15.931,10.4Z" transform="translate(-3.38 -3.38)" opacity="0.1" fill="url(#a)"/></g><path d="M15.171,9.236,8.415,11.488a1.339,1.339,0,0,0,0,2.54l2.743.914.914,2.743a1.339,1.339,0,0,0,2.54,0l2.252-6.755a1.339,1.339,0,0,0-1.693-1.693Zm-1.829,7.287L12.4,13.7l-2.824-.941,5.647-1.882Z" transform="translate(-3.569 -3.664)" fill="url(#a)"/><path d="M12.767,3.333A9.433,9.433,0,1,0,22.2,12.767,9.444,9.444,0,0,0,12.767,3.333Zm0,17.295a7.861,7.861,0,1,1,7.861-7.861A7.87,7.87,0,0,1,12.767,20.628Z" transform="translate(-3.333 -3.333)" fill="url(#a)"/></g></g></g></svg>